<svg class="_7KaXww">
    <defs>
        <clipPath id="__id299">
            <path d="M1230.4646297464903,235.3422065577002C1172.2294408788962,235.0420251717848 1114.0943124732737,229.63876022530695 1055.8591236056795,227.93773237178618C187.91354758306164,226.23670451826536 107.96523846758441,227.83767190981433 29.517836281684335,240.04504827037533C26.91626427041724,239.94498780840354 22.713724867601165,241.84613658586792 21.613059785911243,238.7442622647418C21.412938861967618,237.54353672108005 22.113362095770302,237.14329487319281 23.113966715488413,236.64299256333373C27.416566580276296,234.64178332389753 32.01934783097962,234.04142055206665 36.62212908168294,233.24093685629217C170.7031481239101,213.82920723376077 1096.4836711662351,221.43380234361845 1230.6647506704342,234.74184378586932C1230.664750670434,234.94196470981296 1230.5646902084623,235.14208563375658 1230.4646297464903,235.3422065577002ZM1259.8824055662028,248.35006661403565C1141.6109395155217,237.54353672108005 232.94075547037673,225.83646267037813 114.56922895772395,239.14450411262902C114.56922895772395,239.34462503657264 114.66928941969576,239.54474596051628 114.66928941969576,239.7448668844599C392.32436182355224,227.83767190981433 1149.7158369352387,240.14510873234715 1271.6895400788767,249.75091308164102C1267.4870006760605,249.25061077178196 1263.6847031211316,248.7503084619229 1259.8824055662028,248.35006661403565Z"></path>
        </clipPath>
    </defs>
</svg>