<svg xmlns="http://www.w3.org/2000/svg" xmlns:xlink="http://www.w3.org/1999/xlink" width="1366" zoomAndPan="magnify" viewBox="0 0 1024.5 576" height="768" preserveAspectRatio="xMidYMid meet" version="1.0"><defs><clipPath id="a789a1c5d5"><path d="M 0 0.140625 L 1024 0.140625 L 1024 575.859375 L 0 575.859375 Z M 0 0.140625 " clip-rule="nonzero"/></clipPath><clipPath id="81af41ede5"><path d="M 370.515625 309.949219 L 468.074219 309.949219 L 468.074219 373.972656 L 370.515625 373.972656 Z M 370.515625 309.949219 " clip-rule="nonzero"/></clipPath><clipPath id="a2fbd8075a"><path d="M 351.882812 310 L 445.871094 310 L 445.871094 373.972656 L 351.882812 373.972656 Z M 351.882812 310 " clip-rule="nonzero"/></clipPath><clipPath id="90ae7f9002"><path d="M 97.738281 80 L 189.195312 80 L 189.195312 177.824219 L 97.738281 177.824219 Z M 97.738281 80 " clip-rule="nonzero"/></clipPath><clipPath id="0217e448e7"><path d="M 626.941406 86.863281 L 706.402344 86.863281 L 706.402344 198.558594 L 626.941406 198.558594 Z M 626.941406 86.863281 " clip-rule="nonzero"/></clipPath><clipPath id="fc161e0b1a"><path d="M 86.699219 319 L 95 319 L 95 324 L 86.699219 324 Z M 86.699219 319 " clip-rule="nonzero"/></clipPath><clipPath id="95d16b4586"><path d="M 102 286 L 170 286 L 170 373.722656 L 102 373.722656 Z M 102 286 " clip-rule="nonzero"/></clipPath></defs><g clip-path="url(#a789a1c5d5)"><path fill="#ffffff" d="M 0 0.140625 L 1024 0.140625 L 1024 575.859375 L 0 575.859375 Z M 0 0.140625 " fill-opacity="1" fill-rule="nonzero"/></g><g clip-path="url(#81af41ede5)"><path fill="#100f0d" d="M 468.070312 331.605469 L 454.976562 309.949219 L 444.996094 316.0625 L 458.09375 337.71875 Z M 443.351562 317.046875 C 441.238281 318.21875 437.4375 319.351562 437.390625 319.359375 C 433.996094 320.050781 430.773438 319.308594 427.65625 318.589844 C 426.195312 318.253906 424.6875 317.910156 423.21875 317.730469 C 419.25 317.246094 415.191406 317.847656 412.015625 319.363281 C 411.980469 319.378906 411.945312 319.394531 411.914062 319.410156 L 411.886719 319.375 C 411.859375 319.394531 411.835938 319.421875 411.804688 319.445312 L 395.273438 330.730469 C 394.339844 331.328125 393.707031 332.222656 393.472656 333.273438 C 393.238281 334.324219 393.421875 335.40625 393.992188 336.320312 C 394.5625 337.230469 395.453125 337.863281 396.496094 338.101562 C 397.542969 338.339844 398.617188 338.152344 399.523438 337.578125 L 418.390625 327.289062 L 418.582031 327.183594 C 418.605469 327.171875 418.628906 327.167969 418.652344 327.152344 C 418.667969 327.148438 418.6875 327.140625 418.703125 327.132812 C 418.824219 327.082031 418.945312 327.058594 419.070312 327.054688 C 419.085938 327.050781 419.101562 327.050781 419.117188 327.054688 C 419.195312 327.054688 419.277344 327.0625 419.355469 327.082031 C 419.402344 327.089844 419.445312 327.101562 419.492188 327.117188 C 419.503906 327.125 419.519531 327.132812 419.535156 327.136719 C 419.65625 327.1875 419.765625 327.257812 419.867188 327.351562 C 419.871094 327.355469 419.878906 327.355469 419.886719 327.359375 L 444.621094 351.335938 L 456.449219 338.902344 C 454.398438 335.480469 445.777344 321.09375 443.351562 317.046875 Z M 384.46875 362.007812 L 390.347656 357.203125 C 391.855469 355.96875 392.085938 353.726562 390.859375 352.203125 C 390.164062 351.34375 389.144531 350.894531 388.117188 350.894531 C 387.332031 350.894531 386.546875 351.15625 385.894531 351.6875 L 380.019531 356.492188 C 379.285156 357.09375 378.828125 357.945312 378.734375 358.886719 C 378.636719 359.828125 378.90625 360.757812 379.507812 361.492188 C 380.097656 362.226562 380.941406 362.6875 381.878906 362.785156 C 382.816406 362.882812 383.738281 362.609375 384.46875 362.007812 Z M 388.238281 369.644531 C 389.171875 369.742188 390.09375 369.464844 390.828125 368.867188 L 399.714844 361.597656 C 401.226562 360.363281 401.457031 358.117188 400.226562 356.597656 C 399.632812 355.863281 398.792969 355.402344 397.851562 355.304688 C 397.726562 355.292969 397.605469 355.285156 397.484375 355.285156 C 396.675781 355.285156 395.898438 355.5625 395.261719 356.082031 L 386.375 363.351562 C 385.640625 363.953125 385.183594 364.800781 385.089844 365.746094 C 384.992188 366.6875 385.265625 367.617188 385.863281 368.351562 C 386.457031 369.085938 387.300781 369.546875 388.238281 369.644531 Z M 376.328125 348.484375 C 375.542969 348.484375 374.757812 348.742188 374.101562 349.277344 L 371.929688 351.054688 C 370.417969 352.292969 370.1875 354.535156 371.417969 356.058594 C 372.011719 356.792969 372.855469 357.253906 373.792969 357.351562 C 374.734375 357.445312 375.652344 357.171875 376.382812 356.574219 L 378.558594 354.792969 C 380.066406 353.558594 380.296875 351.316406 379.070312 349.792969 C 378.375 348.929688 377.355469 348.484375 376.328125 348.484375 Z M 395.832031 367.664062 L 398.007812 365.882812 C 398.664062 365.347656 399.449219 365.089844 400.230469 365.089844 C 401.261719 365.089844 402.28125 365.539062 402.976562 366.398438 C 404.203125 367.921875 403.972656 370.164062 402.464844 371.398438 L 400.289062 373.175781 C 398.777344 374.414062 396.550781 374.179688 395.324219 372.660156 C 394.09375 371.140625 394.324219 368.898438 395.832031 367.664062 " fill-opacity="1" fill-rule="nonzero"/></g><g clip-path="url(#a2fbd8075a)"><path fill="#100f0d" d="M 361.859375 338.304688 L 374.953125 316.648438 L 364.976562 310.535156 L 351.882812 332.191406 Z M 444.785156 359.464844 C 443.457031 360.898438 441.21875 360.972656 439.796875 359.636719 L 437.242188 357.234375 C 437.238281 357.230469 437.234375 357.222656 437.230469 357.21875 L 429.355469 349.8125 L 428.859375 349.347656 C 428.410156 348.925781 427.703125 348.949219 427.289062 349.402344 C 426.867188 349.855469 426.886719 350.566406 427.335938 350.984375 L 435.707031 358.859375 C 436.394531 359.507812 436.796875 360.386719 436.828125 361.332031 C 436.855469 362.28125 436.519531 363.1875 435.878906 363.882812 C 435.230469 364.574219 434.359375 364.972656 433.417969 365.007812 C 432.464844 365.042969 431.574219 364.699219 430.886719 364.050781 L 428.542969 361.847656 C 428.496094 361.796875 428.453125 361.746094 428.402344 361.699219 L 422.523438 356.171875 L 420.03125 353.828125 C 419.582031 353.402344 418.878906 353.425781 418.457031 353.878906 C 418.035156 354.332031 418.0625 355.042969 418.511719 355.464844 L 426.878906 363.335938 C 427.570312 363.984375 427.964844 364.863281 427.996094 365.8125 C 428.027344 366.761719 427.691406 367.667969 427.046875 368.359375 C 426.402344 369.050781 425.53125 369.453125 424.585938 369.484375 C 423.632812 369.523438 422.746094 369.175781 422.058594 368.53125 L 413.691406 360.65625 C 413.6875 360.65625 413.683594 360.65625 413.679688 360.652344 L 411.175781 358.296875 C 410.726562 357.875 410.023438 357.898438 409.605469 358.351562 C 409.183594 358.804688 409.203125 359.515625 409.652344 359.9375 L 418.023438 367.808594 C 419.445312 369.148438 419.523438 371.398438 418.195312 372.832031 C 417.550781 373.523438 416.675781 373.921875 415.734375 373.953125 C 414.796875 373.992188 413.890625 373.648438 413.207031 373.003906 L 404.832031 365.128906 C 404.820312 365.113281 404.800781 365.113281 404.785156 365.097656 C 404.757812 365.0625 404.734375 365.023438 404.703125 364.984375 C 403.859375 363.9375 402.71875 363.265625 401.5 362.992188 C 403.613281 360.925781 403.851562 357.53125 401.960938 355.183594 C 400.988281 353.984375 399.609375 353.230469 398.082031 353.074219 C 396.558594 352.917969 395.0625 353.363281 393.871094 354.332031 C 393.847656 353.082031 393.429688 351.832031 392.585938 350.789062 C 390.585938 348.308594 386.949219 347.929688 384.488281 349.949219 L 382.078125 351.917969 C 382.058594 350.671875 381.640625 349.421875 380.800781 348.378906 C 379.601562 346.894531 377.8125 346.167969 376.042969 346.253906 C 374.859375 346.3125 373.6875 346.730469 372.699219 347.539062 L 371.847656 348.238281 L 363.773438 339.746094 C 365.824219 336.324219 374.4375 321.945312 376.871094 317.886719 C 378.984375 319.058594 382.785156 320.191406 382.832031 320.203125 C 386.226562 320.894531 389.449219 320.152344 392.570312 319.433594 C 394.023438 319.101562 395.535156 318.753906 397.003906 318.574219 C 400.609375 318.132812 404.285156 318.582031 407.3125 319.804688 L 394.054688 328.855469 C 392.644531 329.75 391.667969 331.144531 391.300781 332.78125 C 391.214844 333.160156 391.167969 333.546875 391.152344 333.929688 C 391.101562 335.1875 391.425781 336.429688 392.109375 337.511719 C 392.996094 338.933594 394.382812 339.917969 396.007812 340.289062 C 396.472656 340.394531 396.941406 340.449219 397.40625 340.449219 C 398.558594 340.449219 399.6875 340.121094 400.644531 339.511719 L 418.929688 329.546875 L 420.476562 331.046875 L 444.617188 354.441406 C 446.039062 355.78125 446.113281 358.03125 444.785156 359.464844 " fill-opacity="1" fill-rule="nonzero"/></g><g clip-path="url(#90ae7f9002)"><path fill="#100f0d" d="M 112.613281 139.523438 C 108.882812 124.644531 134.0625 105.261719 134.0625 105.261719 C 132.839844 110.234375 135.15625 116.25 135.230469 116.4375 C 134.269531 100.765625 140.625 99.050781 140.625 99.050781 C 146.078125 96.328125 154.632812 89.28125 154.632812 89.28125 C 150.441406 98.410156 152.644531 103.097656 152.71875 103.242188 C 152.71875 103.226562 152.714844 103.21875 152.714844 103.207031 C 152.160156 97.667969 158.054688 88.636719 158.054688 88.636719 C 172.582031 77.371094 189.039062 80.410156 189.039062 80.410156 C 189.175781 87.601562 174.152344 107.078125 174.152344 107.078125 C 167.796875 111.285156 157.90625 108.023438 157.90625 108.023438 C 157.925781 108.035156 157.941406 108.046875 157.964844 108.058594 C 162.519531 111.269531 169.949219 111.25 170.183594 111.25 C 163.855469 113.65625 151.648438 127.921875 151.648438 127.921875 C 149.261719 130.789062 147.253906 131.71875 147.253906 131.71875 C 140.9375 135.289062 132.054688 133.390625 132.054688 133.390625 C 136.3125 136.367188 145.234375 134.894531 145.511719 134.847656 C 143.617188 135.78125 136.015625 144.285156 136.015625 144.285156 C 129.941406 151.027344 125.347656 150.570312 125.347656 150.570312 C 120.261719 151.1875 116.355469 154.410156 116.355469 154.410156 C 120.054688 154.191406 123.199219 156.4375 123.199219 156.4375 C 118.5 155.09375 112.484375 158.347656 112.296875 158.449219 C 115.914062 157.953125 117.128906 159.75 117.128906 159.75 C 114.742188 159.070312 110.1875 162.082031 110.1875 162.082031 C 108.929688 163.074219 107.832031 163.578125 106.96875 163.832031 C 108.339844 160.820312 109.863281 157.847656 111.503906 154.917969 C 113.707031 150.992188 116.128906 147.144531 118.746094 143.390625 C 121.371094 139.644531 124.191406 135.996094 127.148438 132.433594 L 129.410156 129.785156 C 130.160156 128.902344 130.960938 128.050781 131.738281 127.183594 L 132.90625 125.886719 C 133.296875 125.453125 133.710938 125.035156 134.109375 124.613281 L 136.53125 122.074219 C 139.839844 118.753906 143.214844 115.472656 146.777344 112.363281 C 153.847656 106.09375 161.386719 100.246094 169.265625 94.828125 C 161.265625 100.09375 153.589844 105.804688 146.347656 111.957031 C 142.703125 115.011719 139.242188 118.238281 135.835938 121.515625 L 133.339844 124.023438 C 132.925781 124.445312 132.5 124.855469 132.097656 125.285156 L 130.890625 126.566406 C 130.089844 127.425781 129.261719 128.269531 128.484375 129.144531 L 126.144531 131.773438 C 123.078125 135.308594 120.144531 138.941406 117.398438 142.683594 C 114.664062 146.429688 112.117188 150.28125 109.78125 154.230469 C 107.925781 157.371094 106.207031 160.570312 104.664062 163.832031 C 104.59375 163.992188 104.527344 164.152344 104.460938 164.3125 C 103.605469 166.347656 102.839844 168.402344 102.15625 170.46875 C 101.808594 171.5 101.5 172.535156 101.207031 173.570312 C 101.066406 174.089844 100.925781 174.609375 100.800781 175.125 C 100.738281 175.382812 100.675781 175.640625 100.625 175.894531 C 100.566406 176.148438 100.511719 176.417969 100.472656 176.640625 L 100.464844 176.671875 L 100.460938 176.691406 C 100.328125 177.34375 99.644531 177.824219 98.933594 177.769531 C 98.222656 177.714844 97.757812 177.144531 97.890625 176.492188 C 97.953125 176.183594 98.015625 175.921875 98.082031 175.644531 C 98.148438 175.367188 98.222656 175.097656 98.296875 174.824219 C 98.4375 174.28125 98.597656 173.746094 98.757812 173.207031 C 99.085938 172.136719 99.4375 171.070312 99.816406 170.011719 C 100.574219 167.898438 101.410156 165.804688 102.335938 163.738281 C 102.484375 163.398438 102.640625 163.0625 102.792969 162.722656 C 99.941406 159.195312 103.636719 150.519531 103.636719 150.519531 C 103.878906 153.695312 106.386719 154.132812 106.386719 154.132812 C 104.578125 150.117188 107.386719 144.914062 107.386719 144.914062 C 110.171875 139.027344 107.574219 135.25 107.574219 135.25 C 110.605469 136.222656 112.523438 139.378906 112.613281 139.523438 " fill-opacity="1" fill-rule="nonzero"/></g><g clip-path="url(#0217e448e7)"><path fill="#000000" d="M 656.007812 131.703125 C 656.25 131.523438 655.457031 131.453125 655.175781 131.347656 C 654.507812 131.082031 653.84375 130.808594 653.171875 130.554688 C 651.242188 129.816406 649.3125 129.074219 647.386719 128.324219 C 643.753906 126.910156 638.972656 125.109375 635.277344 127.332031 C 633.957031 128.128906 633.589844 130.097656 632.296875 130.667969 C 631.09375 131.195312 629.597656 131.09375 628.328125 131.421875 C 628.042969 131.496094 627.15625 131.617188 626.972656 131.898438 C 626.9375 131.945312 627.5 132.035156 627.527344 132.042969 C 627.90625 132.117188 628.277344 132.203125 628.652344 132.296875 C 629.910156 132.613281 631.160156 132.980469 632.398438 133.378906 C 635.574219 134.390625 638.144531 136.097656 640.832031 138.1875 C 641.859375 138.988281 643.703125 140.285156 643.640625 141.820312 C 643.609375 142.632812 642.082031 143.671875 641.613281 144.234375 C 640.402344 145.6875 639.710938 147.203125 639.597656 149.109375 C 639.246094 154.992188 640.789062 161.246094 641.734375 167.015625 C 642.679688 172.769531 643.046875 178.613281 643.632812 184.410156 C 643.996094 187.996094 644.035156 191.535156 643.828125 195.128906 C 643.808594 195.460938 643.398438 198.175781 643.96875 198.339844 C 644.425781 198.46875 645.199219 197.351562 645.425781 197.089844 C 646.28125 196.078125 647.019531 195.007812 647.582031 193.804688 C 647.785156 193.363281 647.972656 192.105469 648.289062 191.785156 C 648.394531 191.679688 648.386719 192.070312 648.453125 192.199219 C 648.59375 192.457031 648.789062 192.679688 649.046875 192.820312 C 649.632812 193.128906 650.398438 192.867188 650.859375 192.457031 C 653.101562 190.464844 652.285156 186.703125 653.363281 184.207031 C 653.488281 183.917969 653.761719 184.71875 654.03125 184.882812 C 654.519531 185.171875 655.039062 184.96875 655.355469 184.527344 C 656.707031 182.644531 656.707031 179.210938 657.347656 176.980469 C 657.410156 176.765625 657.914062 176.527344 658.066406 176.363281 C 658.644531 175.730469 659.109375 175.011719 659.523438 174.265625 C 660.941406 171.714844 661.910156 168.917969 662.765625 166.136719 C 663.773438 162.847656 664.769531 159.566406 665.476562 156.199219 C 665.648438 155.386719 665.78125 154.570312 665.851562 153.742188 C 665.855469 153.6875 665.980469 152.988281 665.925781 152.953125 C 665.617188 152.746094 666.246094 153.644531 666.515625 153.902344 C 667.085938 154.441406 667.90625 154.699219 668.65625 154.863281 C 670.914062 155.359375 673.417969 155.15625 675.691406 154.851562 C 679.035156 154.398438 682.292969 152.53125 685.714844 152.886719 C 689.792969 153.3125 692.96875 156.707031 696.652344 158.253906 C 698.609375 159.074219 700.648438 159.714844 702.71875 160.171875 C 703.507812 160.347656 704.308594 160.488281 705.113281 160.558594 C 705.449219 160.589844 706.410156 160.832031 706.125 160.644531 C 703.433594 158.855469 700.902344 157.503906 698.648438 155.066406 C 698.398438 154.796875 696.75 153.375 696.804688 152.957031 C 696.804688 152.945312 698.695312 152.863281 698.789062 152.855469 C 700.1875 152.710938 701.589844 152.417969 702.855469 151.789062 C 704.039062 151.203125 705.039062 150.347656 705.6875 149.191406 C 705.71875 149.136719 706.261719 148.191406 706.113281 148.109375 C 705.675781 147.875 704.578125 148.203125 704.128906 148.246094 C 702.316406 148.425781 700.496094 148.625 698.671875 148.582031 C 693.703125 148.46875 688.460938 147.34375 684.125 144.851562 C 682.820312 144.101562 681.554688 143.300781 680.230469 142.585938 C 680.117188 142.523438 679.101562 142.046875 679.125 141.835938 C 679.132812 141.777344 680.167969 141.5625 680.242188 141.539062 C 680.996094 141.273438 681.722656 140.867188 682.296875 140.308594 C 682.902344 139.71875 683.238281 138.917969 683.160156 138.070312 C 683.132812 137.777344 682.828125 137.300781 682.953125 137.015625 C 683.449219 135.851562 685.246094 135.570312 685.703125 134.1875 C 686.066406 133.09375 685.027344 132.367188 685.167969 131.449219 C 685.257812 130.847656 685.980469 130.230469 686.273438 129.710938 C 687.117188 128.203125 687.675781 126.496094 687.304688 124.761719 C 687.128906 123.957031 686.757812 123.265625 686.171875 122.6875 C 685.980469 122.496094 685.328125 122.175781 685.261719 121.898438 C 685.214844 121.691406 686.304688 121.390625 686.4375 121.328125 C 687.195312 120.96875 688.445312 120.167969 688.378906 119.175781 C 688.28125 117.742188 686.101562 118.597656 685.851562 117.90625 C 685.753906 117.644531 687.007812 116.945312 687.160156 116.835938 C 687.917969 116.28125 690.382812 114.867188 690.367188 113.761719 C 690.355469 113.015625 688.269531 113.304688 687.851562 113.339844 C 687.792969 113.34375 686.984375 113.445312 687.015625 113.28125 C 687.085938 112.945312 688.042969 112.539062 688.289062 112.371094 C 689.371094 111.636719 692.472656 109.910156 692.347656 108.328125 C 692.261719 107.195312 689.804688 107.5625 689.117188 107.636719 C 689 107.652344 688.191406 107.820312 688.144531 107.597656 C 688.074219 107.25 689.835938 106.316406 690.066406 106.148438 C 691.761719 104.898438 693.378906 103.503906 693.957031 101.398438 C 694.09375 100.90625 694.363281 99.691406 693.929688 99.214844 C 693.90625 99.191406 692.945312 99.898438 692.882812 99.9375 C 692.238281 100.347656 690.425781 101.730469 689.574219 101.5 C 689.5 101.476562 690.261719 100.675781 690.285156 100.65625 C 690.835938 100.082031 691.292969 99.433594 691.695312 98.75 C 692.726562 96.988281 693.214844 95.089844 693.015625 93.050781 C 692.984375 92.730469 692.945312 91.488281 692.617188 91.265625 C 692.519531 91.203125 691.871094 92.296875 691.808594 92.378906 C 691.140625 93.292969 690.414062 94.148438 689.496094 94.820312 C 689.375 94.910156 688.765625 95.457031 688.582031 95.351562 C 688.558594 95.339844 689.117188 94.023438 689.144531 93.925781 C 689.457031 92.78125 689.605469 91.566406 689.503906 90.382812 C 689.480469 90.144531 689.503906 89.40625 689.273438 89.238281 C 689.128906 89.136719 688.578125 90.355469 688.53125 90.445312 C 688.015625 91.429688 687.4375 92.394531 686.722656 93.253906 C 686.578125 93.429688 686.175781 94.03125 685.875 93.972656 C 685.574219 93.910156 685.765625 92.746094 685.773438 92.566406 C 685.832031 91.164062 685.8125 89.757812 685.648438 88.363281 C 685.636719 88.257812 685.535156 86.96875 685.382812 86.96875 C 685.183594 86.96875 684.96875 87.648438 684.914062 87.769531 C 684.503906 88.679688 684.09375 89.585938 683.644531 90.476562 C 681.792969 94.128906 679.671875 97.59375 677.230469 100.886719 C 675.035156 103.84375 672.652344 106.746094 669.707031 108.988281 C 667.511719 110.664062 664.816406 111.792969 662.976562 113.894531 C 660.605469 116.613281 660.316406 120.539062 658.21875 123.472656 C 655.472656 127.3125 650.996094 129.464844 647.339844 132.308594 " fill-opacity="1" fill-rule="nonzero"/></g><path fill="#333333" d="M 380.898438 177.480469 C 386.765625 177.957031 423.511719 133.289062 416.078125 113.003906 C 410.710938 98.15625 389.71875 94.023438 378.03125 120.96875 L 376.132812 115.742188 C 365.890625 86.90625 334.890625 100.972656 353.769531 140.40625 C 355.78125 144.566406 374.644531 176.96875 380.898438 177.480469 Z M 380.898438 177.480469 " fill-opacity="1" fill-rule="nonzero"/><g clip-path="url(#fc161e0b1a)"><path fill="#000000" d="M 93.820312 320.144531 C 92.933594 318.734375 91.484375 319.433594 90.289062 319.75 C 89.339844 320.003906 88.660156 320.710938 88.019531 321.378906 C 87.667969 321.75 87.476562 322.316406 86.71875 322.203125 C 86.71875 322.640625 86.71875 323.074219 86.71875 323.507812 C 88.621094 323.625 90.578125 323.878906 92.246094 322.832031 C 93.246094 322.203125 94.710938 321.574219 93.820312 320.144531 Z M 93.820312 320.144531 " fill-opacity="1" fill-rule="nonzero"/></g><path fill="#000000" d="M 120.648438 287.921875 C 116.085938 286.007812 115.332031 286.046875 114.75 288.285156 C 115.886719 287.984375 115.707031 289.011719 116.019531 289.410156 C 116.804688 290.410156 117.792969 291.105469 119.078125 291.511719 C 119.820312 291.746094 120.46875 291.722656 121.066406 291.101562 C 121.578125 290.570312 121.617188 290.097656 121.339844 289.523438 C 121.125 289.078125 120.578125 288.753906 120.703125 288.1875 C 123.460938 287.914062 124.363281 286.765625 123.480469 284.433594 C 123.179688 283.632812 122.5625 282.910156 122 282.207031 C 121.6875 281.820312 121.382812 281.242188 120.710938 281.3125 C 119.820312 281.40625 119.980469 282.179688 119.777344 282.683594 C 119.046875 284.488281 119.414062 286.238281 120.648438 287.921875 Z M 120.648438 287.921875 " fill-opacity="1" fill-rule="nonzero"/><path fill="#000000" d="M 148.957031 278.59375 C 148.554688 280.398438 148.691406 282.199219 150.382812 283.59375 C 150.898438 284.019531 151.382812 284.609375 152.28125 284.15625 C 153.019531 283.78125 153.636719 283.417969 153.527344 282.511719 C 153.46875 282 153.003906 281.203125 153.832031 280.972656 C 155.324219 280.554688 155.972656 279.816406 155.902344 278.449219 C 155.839844 277.238281 155.355469 276.203125 154.507812 275.300781 C 154.058594 274.824219 153.726562 273.996094 152.90625 274.097656 C 151.847656 274.234375 152.089844 275.238281 151.882812 275.871094 C 151.617188 276.675781 151.582031 277.539062 151.460938 278.285156 C 150.609375 278.914062 149.394531 276.644531 148.957031 278.59375 Z M 148.957031 278.59375 " fill-opacity="1" fill-rule="nonzero"/><path fill="#000000" d="M 141.378906 280.644531 C 141.339844 281.167969 141.945312 281.796875 142.613281 281.832031 C 144.574219 281.929688 145.835938 280.894531 146.789062 279.542969 C 147.664062 278.296875 147.59375 276.429688 149.90625 276.121094 C 150.160156 276.089844 150.398438 275.402344 150.472656 274.992188 C 150.835938 273.007812 149.675781 271.523438 148.203125 270.195312 C 147.554688 269.613281 147.089844 269.871094 146.78125 270.601562 C 145.921875 272.621094 145.964844 274.542969 147.660156 276.371094 C 146.460938 276.707031 145.417969 276.917969 144.464844 277.289062 C 142.796875 277.9375 141.503906 278.957031 141.378906 280.644531 Z M 141.378906 280.644531 " fill-opacity="1" fill-rule="nonzero"/><path fill="#000000" d="M 113.328125 283.894531 C 113.738281 285.050781 115.472656 285.707031 117.078125 285.558594 C 117.683594 285.5 118.253906 284.835938 118.207031 284.296875 C 118.089844 282.894531 117.015625 281.964844 115.699219 281.277344 C 114.496094 280.648438 111.964844 280.75 113.886719 278.527344 C 114.035156 278.355469 113.597656 277.742188 113.351562 277.375 C 112.242188 275.710938 110.359375 275.214844 108.246094 274.929688 C 107.253906 274.953125 107.035156 275.199219 107.703125 276.367188 C 109.238281 279.046875 112.25 280.863281 113.328125 283.894531 Z M 113.328125 283.894531 " fill-opacity="1" fill-rule="nonzero"/><path fill="#000000" d="M 105.671875 331.886719 C 105.453125 333.234375 104.578125 335.121094 105.871094 335.691406 C 107.179688 336.269531 108.554688 334.621094 109.292969 333.476562 C 109.945312 332.46875 110.570312 331.820312 111.890625 331.335938 C 113.863281 330.613281 115.035156 329.0625 115.257812 327.097656 C 115.34375 326.324219 114.875 325.949219 114.195312 325.566406 C 113.453125 325.152344 112.941406 325.433594 112.421875 325.8125 C 111.714844 326.328125 110.925781 326.90625 110.855469 327.703125 C 110.628906 330.339844 108.605469 329.8125 106.738281 329.621094 C 107.472656 330.734375 105.816406 331.019531 105.671875 331.886719 Z M 105.671875 331.886719 " fill-opacity="1" fill-rule="nonzero"/><path fill="#000000" d="M 142.453125 298.660156 C 142.660156 299.921875 143.46875 300.96875 144.871094 301.503906 C 145.550781 301.765625 146.339844 301.390625 146.609375 300.976562 C 147.375 299.785156 146.867188 298.585938 146.136719 297.492188 C 145.851562 297.0625 145.386719 296.722656 145.066406 296.304688 C 144.234375 295.226562 141.84375 295.355469 142.085938 293.414062 C 142.089844 293.386719 141.503906 293.21875 141.214844 293.257812 C 139.167969 293.515625 137.335938 294.152344 136.300781 295.839844 C 135.949219 296.410156 135.296875 296.976562 136.246094 297.746094 C 137.074219 298.414062 137.789062 298.433594 138.707031 298.105469 C 140.25 297.554688 141.042969 296.359375 142.410156 295.261719 C 142.414062 296.402344 142.273438 297.550781 142.453125 298.660156 Z M 142.453125 298.660156 " fill-opacity="1" fill-rule="nonzero"/><path fill="#000000" d="M 139.476562 291.925781 C 141.175781 291.132812 141.632812 289.484375 142.710938 287.636719 C 143.074219 288.875 143.289062 289.667969 144.402344 289.78125 C 145.5 289.894531 146.039062 289.1875 146.574219 288.558594 C 147.394531 287.589844 147.664062 286.460938 147.546875 285.277344 C 147.480469 284.585938 147.71875 283.652344 146.820312 283.355469 C 146.0625 283.109375 145.382812 283.859375 145.046875 284.332031 C 143.570312 286.398438 141.808594 287.957031 138.792969 288.128906 C 137.988281 288.171875 137.265625 288.757812 136.84375 289.382812 C 136.3125 290.167969 135.117188 290.839844 136.207031 292 C 137.382812 293.25 138.46875 292.394531 139.476562 291.925781 Z M 139.476562 291.925781 " fill-opacity="1" fill-rule="nonzero"/><path fill="#000000" d="M 161.789062 283.808594 C 160.898438 284.808594 160.238281 285.871094 160.5 287.15625 C 160.625 287.75 161.472656 288.199219 161.945312 288.140625 C 163.425781 287.953125 164.210938 287.023438 164.773438 285.804688 C 165.152344 284.976562 165.792969 283.90625 167.285156 284.90625 C 167.621094 285.132812 168.050781 284.8125 168.285156 284.484375 C 169.183594 284.324219 169.691406 283.738281 170.085938 283.113281 C 170.914062 281.820312 171.773438 279.796875 170.675781 279.128906 C 169.3125 278.296875 167.9375 280.042969 166.832031 281.050781 C 166.675781 281.195312 166.628906 281.429688 166.53125 281.625 C 164.832031 282.15625 163 282.441406 161.789062 283.808594 Z M 161.789062 283.808594 " fill-opacity="1" fill-rule="nonzero"/><path fill="#000000" d="M 106.6875 329.617188 C 106.6875 329.617188 106.695312 329.609375 106.703125 329.601562 C 106.695312 329.609375 106.6875 329.617188 106.6875 329.617188 C 106.703125 329.621094 106.71875 329.621094 106.738281 329.621094 C 106.726562 329.609375 106.726562 329.601562 106.71875 329.589844 C 106.683594 329.570312 106.652344 329.5625 106.617188 329.550781 C 106.640625 329.570312 106.65625 329.589844 106.6875 329.617188 Z M 106.6875 329.617188 " fill-opacity="1" fill-rule="nonzero"/><path fill="#000000" d="M 105.113281 281.925781 C 105.042969 284.125 106.652344 286.476562 108.148438 286.332031 C 109.289062 286.21875 109.871094 285.5625 109.796875 284.617188 C 109.820312 282.890625 107.1875 279.617188 105.960938 279.894531 C 104.820312 280.15625 105.132812 281.179688 105.113281 281.925781 Z M 105.113281 281.925781 " fill-opacity="1" fill-rule="nonzero"/><path fill="#000000" d="M 129.0625 275.582031 C 129.878906 275.265625 130.320312 274.847656 130.351562 273.96875 C 130.429688 271.933594 129.175781 270.578125 127.574219 269.351562 C 126.820312 268.773438 126.363281 269.074219 126.160156 269.78125 C 125.996094 270.339844 125.949219 270.917969 125.847656 271.492188 C 125.792969 272.785156 126.191406 273.945312 127.1875 274.898438 C 127.65625 275.351562 128.144531 275.941406 129.0625 275.582031 Z M 129.0625 275.582031 " fill-opacity="1" fill-rule="nonzero"/><path fill="#000000" d="M 114.691406 288.328125 C 114.707031 288.332031 114.71875 288.339844 114.734375 288.34375 C 114.734375 288.34375 114.699219 288.3125 114.691406 288.304688 L 114.738281 288.34375 C 114.742188 288.324219 114.75 288.304688 114.75 288.285156 C 114.730469 288.292969 114.710938 288.292969 114.6875 288.300781 C 114.6875 288.3125 114.691406 288.320312 114.691406 288.328125 Z M 114.691406 288.328125 " fill-opacity="1" fill-rule="nonzero"/><path fill="#000000" d="M 112.296875 286.386719 C 111.660156 286.046875 111.109375 285.707031 110.855469 286.648438 C 110.339844 288.539062 110.25 290.382812 111.878906 291.957031 C 112.375 292.4375 112.886719 292.875 113.804688 292.550781 C 114.648438 292.253906 114.933594 291.71875 114.917969 291.039062 C 114.898438 290.132812 114.773438 289.230469 114.691406 288.324219 C 113.527344 288.03125 113.246094 286.902344 112.296875 286.386719 Z M 112.296875 286.386719 " fill-opacity="1" fill-rule="nonzero"/><path fill="#000000" d="M 154.738281 285.050781 C 154.890625 286.464844 155.042969 287.851562 156.574219 288.683594 C 157.347656 289.101562 158.253906 288.691406 158.542969 288.242188 C 159.371094 286.972656 159.179688 285.59375 158.359375 284.332031 C 157.765625 283.414062 157.136719 281.964844 155.941406 282.207031 C 154.699219 282.460938 155.117188 284.074219 154.738281 285.050781 Z M 154.738281 285.050781 " fill-opacity="1" fill-rule="nonzero"/><path fill="#000000" d="M 170.671875 304.746094 C 169.980469 305.046875 169.753906 305.925781 170.117188 306.4375 C 171.015625 307.714844 172.542969 308.078125 174.527344 308.050781 C 175.347656 307.773438 177.160156 308.328125 177.515625 307.175781 C 177.851562 306.078125 176.164062 305.566406 175.160156 305.019531 C 173.753906 304.246094 172.175781 304.09375 170.671875 304.746094 Z M 170.671875 304.746094 " fill-opacity="1" fill-rule="nonzero"/><path fill="#000000" d="M 91.636719 312.640625 C 92.402344 312.882812 93.09375 313.21875 93.839844 312.421875 C 94.511719 311.703125 94.375 311.179688 93.933594 310.476562 C 92.882812 308.789062 91.171875 308.058594 89.105469 307.777344 C 87.898438 307.613281 87.585938 307.96875 88.046875 308.980469 C 88.769531 310.570312 89.640625 312.019531 91.636719 312.640625 Z M 91.636719 312.640625 " fill-opacity="1" fill-rule="nonzero"/><path fill="#000000" d="M 154.285156 337.472656 C 155.191406 338.113281 155.714844 338.347656 156.125 337.066406 C 157.105469 334.003906 155.679688 331.847656 152.183594 331.320312 C 151.773438 333.65625 151.941406 335.824219 154.285156 337.472656 Z M 154.285156 337.472656 " fill-opacity="1" fill-rule="nonzero"/><path fill="#000000" d="M 170.816406 328.566406 C 169.328125 328.328125 168.433594 329.179688 168.863281 330.421875 C 169.394531 331.957031 172.085938 333.769531 173.933594 333.855469 C 174.644531 333.890625 175.070312 333.726562 174.925781 332.976562 C 174.886719 331.15625 172.789062 328.882812 170.816406 328.566406 Z M 170.816406 328.566406 " fill-opacity="1" fill-rule="nonzero"/><path fill="#000000" d="M 95.9375 322.09375 C 97.671875 322.710938 102.03125 320.109375 102.003906 318.457031 C 101.988281 317.351562 100.878906 316.714844 99.527344 317.105469 C 97.246094 317.769531 96.230469 319.398438 95.527344 321.238281 C 95.390625 321.613281 95.425781 321.914062 95.9375 322.09375 Z M 95.9375 322.09375 " fill-opacity="1" fill-rule="nonzero"/><path fill="#000000" d="M 95.019531 323.585938 C 92.960938 323.664062 90.164062 327.703125 91.050781 329.078125 C 91.332031 329.511719 91.800781 329.609375 92.320312 329.398438 C 94.332031 328.578125 96.023438 327.511719 96.554688 325.464844 C 96.886719 324.171875 95.8125 323.929688 95.019531 323.585938 Z M 95.019531 323.585938 " fill-opacity="1" fill-rule="nonzero"/><path fill="#000000" d="M 133.46875 280.550781 C 133.535156 281.222656 133.902344 281.519531 134.53125 281.84375 C 135.292969 282.234375 135.820312 281.972656 136.316406 281.589844 C 137.582031 280.625 138.113281 279.363281 138.082031 277.621094 C 138.039062 277.339844 137.96875 276.765625 137.878906 276.191406 C 137.773438 275.527344 137.441406 275.367188 136.699219 275.691406 C 134.9375 276.460938 133.3125 278.921875 133.46875 280.550781 Z M 133.46875 280.550781 " fill-opacity="1" fill-rule="nonzero"/><path fill="#000000" d="M 172.179688 321.378906 C 171.929688 321.898438 171.5625 322.386719 172.269531 322.929688 C 172.804688 323.34375 173.273438 323.597656 174.023438 323.488281 C 175.871094 323.222656 178.40625 320.761719 178.414062 319.214844 C 178.5 318.621094 178.234375 318.402344 177.59375 318.355469 C 175.820312 318.230469 172.925781 319.8125 172.179688 321.378906 Z M 172.179688 321.378906 " fill-opacity="1" fill-rule="nonzero"/><path fill="#000000" d="M 173.1875 318.304688 C 175.359375 317.632812 176.339844 316.101562 176.960938 314.335938 C 177.234375 313.554688 176.730469 313.292969 175.617188 313.496094 C 173.835938 313.710938 172.046875 314.359375 171.007812 316.011719 C 170.691406 316.515625 170.101562 317.054688 170.800781 317.75 C 171.492188 318.441406 172.226562 318.601562 173.1875 318.304688 Z M 173.1875 318.304688 " fill-opacity="1" fill-rule="nonzero"/><path fill="#000000" d="M 140.210938 277.320312 C 141.089844 277.691406 141.570312 277.152344 142.109375 276.707031 C 143.277344 275.742188 143.539062 274.484375 143.683594 273.328125 C 143.675781 271.515625 143.195312 270.773438 142.316406 271.058594 C 140.605469 271.617188 138.847656 274.199219 139.023438 275.804688 C 139.105469 276.53125 139.484375 277.011719 140.210938 277.320312 Z M 140.210938 277.320312 " fill-opacity="1" fill-rule="nonzero"/><path fill="#000000" d="M 125.417969 286.546875 C 124.847656 286.445312 124.507812 286.605469 124.433594 287.191406 C 124.234375 288.800781 127.226562 291.660156 129.390625 291.636719 C 130.160156 291.261719 131.449219 291.109375 130.722656 289.625 C 129.710938 287.5625 127.660156 286.949219 125.417969 286.546875 Z M 125.417969 286.546875 " fill-opacity="1" fill-rule="nonzero"/><path fill="#000000" d="M 125.175781 282.011719 C 126.09375 281.691406 126.726562 281.167969 126.550781 280.339844 C 126.554688 278.28125 125.292969 276.972656 123.761719 275.792969 C 123.070312 275.257812 122.480469 275.367188 122.332031 276.152344 C 121.992188 277.945312 121.707031 279.761719 123.316406 281.289062 C 123.816406 281.765625 124.292969 282.320312 125.175781 282.011719 Z M 125.175781 282.011719 " fill-opacity="1" fill-rule="nonzero"/><path fill="#000000" d="M 170.203125 298.792969 C 170.019531 299.945312 170.566406 300.792969 172.152344 300.582031 C 174.007812 300.332031 176.480469 297.929688 176.625 296.296875 C 176.738281 295.753906 176.5 295.53125 175.847656 295.460938 C 173.933594 295.25 170.453125 297.195312 170.203125 298.792969 Z M 170.203125 298.792969 " fill-opacity="1" fill-rule="nonzero"/><path fill="#000000" d="M 178.292969 325.90625 C 176.863281 325.230469 175.285156 324.960938 173.847656 325.816406 C 173.4375 326.0625 172.96875 326.78125 173.386719 327.359375 C 174.324219 328.640625 175.839844 328.976562 177.75 329.082031 C 178.601562 328.707031 180.492188 329.230469 180.796875 328.175781 C 181.132812 327.007812 179.40625 326.433594 178.292969 325.90625 Z M 178.292969 325.90625 " fill-opacity="1" fill-rule="nonzero"/><path fill="#000000" d="M 91.105469 303.128906 C 92.769531 303.644531 94.492188 303.949219 96.160156 303.21875 C 97.046875 302.832031 98.285156 302.519531 97.894531 301.246094 C 97.554688 300.128906 96.570312 299.890625 95.492188 299.980469 C 93.503906 299.871094 92.105469 300.746094 90.765625 301.742188 C 89.890625 302.394531 90.214844 302.855469 91.105469 303.128906 Z M 91.105469 303.128906 " fill-opacity="1" fill-rule="nonzero"/><path fill="#000000" d="M 95.328125 314.628906 C 94.089844 313.886719 92.628906 313.980469 91.273438 314.414062 C 89.953125 314.839844 88.058594 315.570312 88.226562 316.605469 C 88.414062 317.757812 90.464844 317.644531 91.746094 317.789062 C 93.386719 317.734375 94.824219 317.394531 95.707031 316.195312 C 96.085938 315.675781 95.746094 314.878906 95.328125 314.628906 Z M 95.328125 314.628906 " fill-opacity="1" fill-rule="nonzero"/><path fill="#000000" d="M 170.90625 303.164062 C 171.136719 302.269531 169.621094 301.675781 168.65625 301.160156 C 167.152344 300.351562 165.53125 300.109375 163.96875 300.871094 C 163.394531 301.152344 163.113281 302.015625 163.550781 302.589844 C 164.511719 303.839844 166.039062 304.148438 167.960938 304.152344 C 168.777344 303.785156 170.59375 304.394531 170.90625 303.164062 Z M 170.90625 303.164062 " fill-opacity="1" fill-rule="nonzero"/><path fill="#000000" d="M 129.28125 277.816406 C 128.050781 278.023438 128.207031 279.566406 128.148438 279.988281 C 127.945312 282.085938 128.429688 283.386719 129.785156 284.257812 C 130.355469 284.628906 131.367188 284.46875 131.757812 283.914062 C 132.652344 282.644531 132.445312 281.269531 131.675781 279.992188 C 131.105469 279.058594 130.453125 277.613281 129.28125 277.816406 Z M 129.28125 277.816406 " fill-opacity="1" fill-rule="nonzero"/><path fill="#000000" d="M 153.511719 293.304688 C 154.839844 293.46875 155.390625 292.34375 155.226562 291.347656 C 155.261719 289.597656 153.371094 286.386719 152.472656 286.648438 C 150.792969 287.132812 151.125 288.667969 151.082031 289.785156 C 151.027344 291.316406 151.398438 293.042969 153.511719 293.304688 Z M 153.511719 293.304688 " fill-opacity="1" fill-rule="nonzero"/><path fill="#000000" d="M 158.90625 310.96875 C 159.148438 309.199219 156.175781 306.144531 154.023438 306.203125 C 153.082031 306.632812 152.324219 307.253906 152.902344 308.460938 C 153.832031 310.402344 155.796875 311.113281 157.925781 311.601562 C 158.542969 311.742188 158.828125 311.515625 158.90625 310.96875 Z M 158.90625 310.96875 " fill-opacity="1" fill-rule="nonzero"/><path fill="#000000" d="M 100.0625 291.835938 C 100.699219 291.992188 101.226562 292.167969 101.789062 291.519531 C 102.308594 290.921875 102.472656 290.460938 102.085938 289.789062 C 101.0625 287.996094 99.300781 287.210938 97.585938 286.984375 C 96.332031 286.867188 95.480469 286.792969 95.882812 287.875 C 96.582031 289.734375 97.734375 291.261719 100.0625 291.835938 Z M 100.0625 291.835938 " fill-opacity="1" fill-rule="nonzero"/><path fill="#000000" d="M 116.6875 279.351562 C 117.195312 279.75 117.6875 280.117188 118.433594 279.789062 C 119.140625 279.476562 119.644531 279.078125 119.621094 278.308594 C 119.574219 276.777344 118.925781 275.496094 117.566406 274.539062 C 116.957031 274.109375 116.398438 273.234375 115.566406 273.523438 C 114.71875 273.824219 115.0625 274.789062 114.910156 275.402344 C 114.917969 276.964844 115.355469 278.308594 116.6875 279.351562 Z M 116.6875 279.351562 " fill-opacity="1" fill-rule="nonzero"/><path fill="#000000" d="M 165.625 308.492188 C 165.707031 306.929688 163.449219 304.332031 161.617188 303.964844 C 160.164062 303.671875 159.230469 304.476562 159.523438 305.757812 C 159.882812 307.351562 162.8125 309.292969 164.710938 309.203125 C 165.304688 309.246094 165.59375 309.078125 165.625 308.492188 Z M 165.625 308.492188 " fill-opacity="1" fill-rule="nonzero"/><path fill="#000000" d="M 102.914062 308.917969 C 102.425781 308.332031 102.023438 307.96875 101.132812 308.070312 C 99.183594 308.304688 97.738281 309.183594 96.703125 310.59375 C 96.371094 311.050781 95.652344 311.464844 96.09375 312.101562 C 96.449219 312.613281 97.15625 312.34375 97.707031 312.429688 C 99.714844 312.417969 101.488281 311.941406 102.714844 310.453125 C 103.089844 310.003906 103.464844 309.582031 102.914062 308.917969 Z M 102.914062 308.917969 " fill-opacity="1" fill-rule="nonzero"/><path fill="#000000" d="M 106.496094 291.570312 C 107.261719 291.824219 107.835938 291.660156 108.46875 291.125 C 109.210938 290.5 108.933594 289.945312 108.628906 289.382812 C 107.597656 287.488281 105.5625 286.90625 103.253906 286.457031 C 102.609375 286.441406 102.433594 286.847656 102.59375 287.433594 C 103.121094 289.367188 104.296875 290.84375 106.496094 291.570312 Z M 106.496094 291.570312 " fill-opacity="1" fill-rule="nonzero"/><path fill="#000000" d="M 165.65625 289.359375 C 165.878906 289.105469 166.210938 289.207031 166.554688 289.296875 C 168.914062 289.929688 170.738281 289.058594 172.433594 287.746094 C 173.605469 286.84375 173.597656 286.3125 171.976562 285.902344 C 168.46875 285.023438 166.492188 286.078125 165.65625 289.359375 Z M 165.65625 289.359375 " fill-opacity="1" fill-rule="nonzero"/><path fill="#000000" d="M 98.269531 328.039062 C 100.316406 327.363281 102.113281 326.375 102.707031 324.339844 C 102.925781 323.59375 102.816406 322.960938 102 322.464844 C 101.214844 321.988281 100.625 322.285156 99.976562 322.640625 C 98.117188 323.660156 97.511719 325.242188 97.339844 327.03125 C 97.277344 327.628906 97.253906 328.371094 98.269531 328.039062 Z M 98.269531 328.039062 " fill-opacity="1" fill-rule="nonzero"/><path fill="#000000" d="M 162.167969 314.074219 C 160.941406 314.300781 161.160156 315.855469 161.078125 316.308594 C 160.890625 318.351562 161.285156 319.660156 162.691406 320.539062 C 163.382812 320.96875 164.3125 320.652344 164.65625 320.15625 C 165.539062 318.890625 165.324219 317.492188 164.550781 316.238281 C 163.988281 315.324219 163.335938 313.859375 162.167969 314.074219 Z M 162.167969 314.074219 " fill-opacity="1" fill-rule="nonzero"/><path fill="#000000" d="M 147.691406 296.445312 C 148.242188 296.882812 148.742188 297.285156 149.65625 296.933594 C 150.632812 296.566406 150.777344 295.972656 150.714844 295.296875 C 150.695312 293.15625 149.1875 291.921875 147.476562 290.832031 C 146.996094 290.527344 146.296875 290.386719 146.195312 291.199219 C 145.960938 293.097656 145.871094 294.988281 147.691406 296.445312 Z M 147.691406 296.445312 " fill-opacity="1" fill-rule="nonzero"/><path fill="#000000" d="M 103.363281 314.605469 C 103.308594 315.316406 103.335938 316.050781 104.496094 315.675781 C 106.398438 315.058594 108.042969 314.109375 108.652344 312.289062 C 108.875 311.628906 109.136719 310.863281 108.242188 310.34375 C 107.34375 309.820312 106.488281 310.050781 105.71875 310.53125 C 104.132812 311.527344 103.503906 312.964844 103.363281 314.605469 Z M 103.363281 314.605469 " fill-opacity="1" fill-rule="nonzero"/><path fill="#000000" d="M 150.242188 313.53125 C 151.164062 313.242188 150.757812 311.847656 151.054688 311.03125 C 150.921875 309.394531 150.453125 307.9375 148.789062 307.097656 C 148.203125 306.800781 147.339844 307.0625 147.03125 307.578125 C 146.132812 309.089844 146.589844 310.5625 147.703125 311.824219 C 148.371094 312.574219 149.03125 313.90625 150.242188 313.53125 Z M 150.242188 313.53125 " fill-opacity="1" fill-rule="nonzero"/><path fill="#000000" d="M 160.820312 330.023438 C 159.71875 330.371094 159.078125 331.058594 159.632812 332.242188 C 160.527344 334.167969 162.371094 334.996094 164.589844 335.335938 C 165.121094 335.417969 165.53125 335.367188 165.632812 334.761719 C 165.914062 333.109375 162.835938 329.917969 160.820312 330.023438 Z M 160.820312 330.023438 " fill-opacity="1" fill-rule="nonzero"/><path fill="#000000" d="M 158.921875 282.300781 C 159.726562 282.5625 160.320312 282.511719 160.9375 281.980469 C 162.128906 280.949219 162.710938 279.734375 162.605469 278.390625 C 162.605469 276.140625 162.210938 275.617188 161.121094 276.273438 C 159.289062 277.378906 157.898438 278.785156 158.050781 280.925781 C 158.089844 281.503906 158.09375 282.03125 158.921875 282.300781 Z M 158.921875 282.300781 " fill-opacity="1" fill-rule="nonzero"/><path fill="#000000" d="M 167.785156 314.535156 C 168.511719 315.011719 169.074219 314.5625 169.558594 314.277344 C 171.558594 313.109375 171.933594 311.289062 171.960938 309.371094 C 171.972656 308.730469 171.617188 308.492188 170.851562 308.664062 C 169.074219 309.066406 166.929688 311.339844 166.859375 313 C 166.640625 313.710938 167.160156 314.121094 167.785156 314.535156 Z M 167.785156 314.535156 " fill-opacity="1" fill-rule="nonzero"/><path fill="#000000" d="M 133.871094 286.046875 C 133.523438 286.742188 133.617188 287.15625 134.191406 287.753906 C 134.859375 288.449219 135.441406 288.222656 136.148438 288.003906 C 138.320312 287.320312 139.253906 285.746094 139.960938 284.011719 C 140.292969 283.191406 139.769531 282.988281 138.625 283.078125 C 136.769531 283.421875 134.851562 284.09375 133.871094 286.046875 Z M 133.871094 286.046875 " fill-opacity="1" fill-rule="nonzero"/><path fill="#000000" d="M 101.261719 328.828125 C 100.605469 328.371094 100.023438 328.699219 99.460938 328.996094 C 97.609375 329.988281 96.871094 331.523438 96.683594 333.320312 C 96.753906 333.839844 96.386719 334.558594 97.546875 334.488281 C 99.316406 334.386719 101.9375 332.042969 102.191406 330.429688 C 102.316406 329.632812 101.847656 329.234375 101.261719 328.828125 Z M 101.261719 328.828125 " fill-opacity="1" fill-rule="nonzero"/><path fill="#000000" d="M 160.507812 293.925781 C 160.324219 294.675781 160.394531 295.238281 161.289062 295.753906 C 162.335938 296.359375 162.691406 295.636719 163.398438 295.359375 C 163.472656 295.332031 163.535156 295.289062 163.589844 295.234375 C 164.035156 294.960938 165.109375 294.40625 165.226562 295.339844 C 164.972656 295.605469 164.523438 295.804688 164.378906 296.101562 C 163.988281 296.882812 163.773438 297.496094 164.511719 298.257812 C 165.265625 299.027344 166 298.707031 166.734375 298.449219 C 168.453125 297.839844 169.617188 296.683594 170.054688 295.160156 C 170.421875 293.867188 170.945312 293.433594 172.570312 293.640625 C 173.847656 293.796875 175.945312 294.007812 176.246094 292.710938 C 176.507812 291.597656 174.554688 291.003906 173.375 290.386719 C 173.105469 290.246094 172.753906 290.183594 172.429688 290.148438 C 171.214844 290.011719 169.902344 289.730469 169.035156 290.785156 C 168.101562 291.921875 169.414062 292.550781 170.433594 293.722656 C 168.726562 293.285156 167.632812 294.195312 166.398438 294.464844 C 166.398438 294.464844 165.546875 293.921875 165.335938 292.796875 C 165.582031 291.742188 165.875 290.691406 165.5625 289.597656 C 163.226562 290.460938 161.097656 291.511719 160.507812 293.925781 Z M 160.507812 293.925781 " fill-opacity="1" fill-rule="nonzero"/><path fill="#000000" d="M 165.5625 289.597656 C 165.574219 289.59375 165.585938 289.589844 165.601562 289.585938 C 165.617188 289.507812 165.640625 289.4375 165.660156 289.363281 C 165.621094 289.410156 165.582031 289.464844 165.550781 289.542969 C 165.550781 289.558594 165.554688 289.578125 165.5625 289.597656 Z M 165.5625 289.597656 " fill-opacity="1" fill-rule="nonzero"/><path fill="#000000" d="M 98.433594 299.707031 C 99.097656 300.035156 99.546875 300.085938 100.148438 299.570312 C 100.609375 299.179688 101.183594 299.011719 101.003906 298.246094 C 100.839844 297.53125 100.164062 296.863281 100.585938 296.0625 C 99.136719 295.902344 98.527344 294.566406 97.1875 294.214844 C 96.398438 294.003906 95.777344 293.707031 95.59375 294.753906 C 95.296875 296.417969 96.710938 298.855469 98.433594 299.707031 Z M 98.433594 299.707031 " fill-opacity="1" fill-rule="nonzero"/><path fill="#000000" d="M 110.847656 316.617188 C 112.824219 315.832031 114.246094 314.363281 114.429688 312.273438 C 114.496094 311.527344 114.144531 311.078125 113.441406 310.695312 C 112.628906 310.265625 112.058594 310.546875 111.457031 311.007812 C 110.046875 312.09375 109.625 313.511719 109.554688 315.199219 C 110.039062 315.59375 109.03125 317.335938 110.847656 316.617188 Z M 110.847656 316.617188 " fill-opacity="1" fill-rule="nonzero"/><path fill="#000000" d="M 97.109375 307.714844 C 99.257812 307.320312 101.214844 306.804688 102.296875 305.019531 C 102.648438 304.445312 102.976562 303.914062 102.390625 303.246094 C 101.78125 302.558594 101.066406 302.445312 100.21875 302.703125 C 97.96875 303.390625 96.902344 304.96875 96.265625 306.820312 C 96.050781 307.445312 96.453125 307.761719 97.109375 307.714844 Z M 97.109375 307.714844 " fill-opacity="1" fill-rule="nonzero"/><path fill="#000000" d="M 101.464844 297.273438 C 102.421875 298.136719 103.269531 299.730469 104.964844 298.6875 C 106.6875 297.628906 105.535156 296.296875 104.730469 295.136719 C 104.648438 295.019531 104.511719 294.925781 104.394531 294.824219 C 103.40625 293.953125 102.117188 292.789062 100.917969 293.167969 C 99.585938 293.59375 100.871094 295.070312 100.667969 296.070312 L 100.609375 296.011719 C 100.601562 296.03125 100.597656 296.046875 100.589844 296.0625 C 100.609375 296.066406 100.628906 296.070312 100.648438 296.070312 C 100.90625 296.484375 101.105469 296.945312 101.464844 297.273438 Z M 101.464844 297.273438 " fill-opacity="1" fill-rule="nonzero"/><path fill="#000000" d="M 111.042969 307.230469 C 111.855469 306.484375 111.503906 305.972656 111.128906 305.328125 C 110.171875 303.695312 108.441406 303.078125 106.734375 302.699219 C 105.070312 302.539062 104.882812 302.710938 105.3125 303.90625 C 105.90625 305.558594 106.945312 306.867188 108.902344 307.535156 C 109.742188 307.816406 110.277344 307.933594 111.042969 307.230469 Z M 111.042969 307.230469 " fill-opacity="1" fill-rule="nonzero"/><path fill="#000000" d="M 117.65625 299.988281 C 117.636719 299.980469 117.617188 299.976562 117.597656 299.96875 C 117.601562 299.976562 117.609375 299.988281 117.613281 299.996094 C 117.632812 300.003906 117.640625 300.015625 117.660156 300.023438 C 117.65625 300.011719 117.660156 300.003906 117.65625 299.988281 Z M 117.65625 299.988281 " fill-opacity="1" fill-rule="nonzero"/><path fill="#000000" d="M 122.117188 298.152344 C 122.359375 297.117188 122.261719 296.011719 122.210938 294.945312 C 122.148438 293.792969 121.480469 293.863281 120.605469 294.433594 C 118.472656 295.832031 117.476562 297.671875 117.664062 299.988281 C 120.011719 300.816406 121.632812 300.210938 122.117188 298.152344 Z M 122.117188 298.152344 " fill-opacity="1" fill-rule="nonzero"/><path fill="#000000" d="M 119.585938 310.65625 C 117.820312 311.242188 116.046875 313.9375 116.183594 315.597656 C 116.25 316.421875 116.824219 316.648438 117.496094 316.957031 C 118.25 317.304688 118.714844 316.960938 119.238281 316.578125 C 120.542969 315.613281 121.019531 314.371094 120.953125 313.21875 C 120.960938 310.808594 120.652344 310.300781 119.585938 310.65625 Z M 119.585938 310.65625 " fill-opacity="1" fill-rule="nonzero"/><path fill="#000000" d="M 102.519531 362.59375 C 102.570312 362.035156 102.726562 361.53125 102.953125 361.066406 C 102.546875 361.363281 102.136719 361.660156 101.726562 361.957031 C 101.992188 362.167969 102.253906 362.378906 102.519531 362.59375 Z M 102.519531 362.59375 " fill-opacity="1" fill-rule="nonzero"/><g clip-path="url(#95d16b4586)"><path fill="#000000" d="M 160.480469 357.878906 C 160.730469 356.859375 162.125 357.484375 162.667969 356.695312 C 161.085938 355.859375 159.453125 357.1875 157.820312 356.453125 C 155.136719 355.246094 152.152344 354.910156 149.132812 354.761719 C 145.363281 354.570312 141.757812 353.757812 138.40625 352.203125 C 137.347656 351.714844 136.480469 351.164062 136.4375 349.9375 C 136.125 340.441406 134.277344 342.726562 142.613281 336.492188 C 144.367188 335.179688 146.308594 334.027344 148.273438 332.960938 C 149.5 332.296875 150.566406 331.265625 152.1875 331.273438 L 152.183594 331.277344 C 152.1875 331.273438 152.152344 331.3125 152.152344 331.3125 C 152.160156 331.3125 152.167969 331.316406 152.179688 331.316406 C 152.179688 331.308594 152.183594 331.304688 152.183594 331.292969 C 155.128906 329.675781 157.710938 327.484375 161.792969 328.136719 C 164.347656 328.542969 167.105469 328.445312 169.164062 326.542969 L 169.160156 326.542969 C 169.15625 326.539062 169.160156 326.480469 169.160156 326.480469 L 169.121094 326.539062 C 166.625 326.882812 164.125 327.332031 161.339844 326.625 C 163.59375 324.855469 166.1875 323.710938 167.53125 321.453125 C 163.230469 323.519531 158.898438 325.382812 154.402344 326.960938 C 153.921875 327.128906 153.398438 327.761719 152.90625 327.164062 C 152.699219 326.914062 152.933594 326.359375 153.042969 325.953125 C 153.523438 324.183594 154.996094 322.808594 156.109375 320.613281 C 153.15625 322.78125 151.199219 324.777344 150.507812 327.507812 C 150.277344 328.398438 149.621094 328.851562 148.785156 329.222656 C 144.765625 330.988281 141.023438 333.109375 137.570312 335.625 C 137.214844 335.882812 136.933594 336.382812 136.34375 336.160156 C 135.757812 335.933594 135.957031 335.398438 135.945312 335.007812 C 135.839844 330.167969 135.316406 325.328125 135.730469 320.488281 C 136.40625 312.585938 142.871094 306.53125 151.824219 305.210938 C 152.722656 305.078125 153.628906 304.894531 154.5 304.640625 C 154.5 304.640625 160.113281 303.363281 162.585938 300.199219 C 165.0625 297.035156 163.328125 298.027344 163.328125 298.027344 C 163.328125 298.027344 159.679688 301.316406 157.136719 302.707031 C 157.367188 301.835938 158.105469 299.257812 158.105469 299.257812 C 158.375 298.824219 158.660156 298.359375 158.972656 297.855469 C 157.085938 299.089844 156.085938 300.277344 155.484375 301.726562 C 154.644531 304.4375 152.152344 303.972656 149.371094 304.105469 C 151.957031 301.171875 154.527344 298.496094 156.574219 295.578125 C 157.734375 294.453125 158.46875 293.085938 158.832031 292.289062 C 159.246094 291.839844 159.484375 291.265625 159.394531 290.34375 C 158.644531 291.28125 158.101562 291.957031 157.566406 292.628906 C 151.523438 299.570312 143.945312 304.910156 134.847656 308.878906 C 133.628906 306.105469 134.117188 303.101562 134.457031 300.109375 C 134.933594 295.949219 134.476562 291.886719 132.707031 287.964844 C 132.445312 287.378906 132.238281 286.777344 131.214844 286.570312 C 131.773438 288.558594 132.058594 290.484375 132.109375 292.4375 C 132.164062 294.46875 132.121094 296.476562 131.710938 298.488281 C 131.386719 300.097656 130.925781 300.464844 129.273438 299.28125 C 126.410156 297.230469 124.722656 294.574219 123.316406 291.226562 C 123.292969 294.890625 124.386719 297.8125 127.125 299.949219 C 129.175781 301.550781 131.167969 302.890625 129.804688 305.617188 C 129.609375 306.015625 129.972656 306.398438 130.195312 306.796875 C 130.929688 308.101562 130.738281 309.558594 130.191406 310.800781 C 129.996094 311.242188 129.574219 311.375 129.074219 311.425781 C 128.476562 310.988281 127.988281 310.089844 127.753906 309.609375 C 127.746094 309.3125 127.300781 308.960938 126.871094 308.613281 C 126.027344 307.9375 125.214844 307.089844 124.195312 306.746094 C 120.542969 305.511719 119.105469 302.753906 117.609375 299.992188 C 115.558594 298.8125 115.679688 296.542969 114.308594 295.011719 C 113.738281 295.449219 114.566406 296.332031 113.515625 296.726562 C 112.257812 294.722656 110.414062 293.425781 107.632812 293.480469 C 107.101562 293.492188 106.167969 293.289062 106.308594 294 C 106.589844 295.476562 107.640625 296.667969 109.117188 297.417969 C 110.207031 297.96875 111.457031 298.710938 112.71875 297.597656 C 113.25 297.125 114.144531 296.453125 114.394531 297.363281 C 114.914062 299.265625 116.519531 300.785156 116.929688 302.921875 C 113.230469 302.375 110.003906 300.671875 106.269531 301.582031 C 110.832031 302.90625 115.402344 304.210938 119.085938 307.332031 C 115.449219 308.5 111.796875 308.347656 108.203125 308.621094 C 111.777344 309.691406 115.367188 309.773438 118.882812 308.863281 C 120.492188 308.449219 121.445312 308.742188 122.585938 309.703125 C 123.261719 310.273438 123.75 310.980469 124.304688 311.640625 C 124.472656 311.839844 124.644531 312.039062 124.832031 312.226562 L 127.242188 314.890625 C 127.976562 315.921875 128.695312 316.957031 128.800781 318.214844 C 129.074219 321.527344 129.253906 324.847656 129.445312 328.164062 C 129.46875 328.550781 129.667969 329.078125 129.019531 329.261719 C 128.417969 329.4375 128.148438 328.941406 127.800781 328.679688 C 125.902344 327.261719 123.871094 325.996094 121.671875 324.992188 C 120.140625 324.292969 118.929688 323.582031 118.449219 321.996094 C 118.15625 321.042969 117.527344 320.03125 116.238281 319.59375 C 115.964844 320.253906 116.480469 320.632812 116.632812 321.101562 C 116.800781 321.605469 117.496094 322.167969 116.816406 322.644531 C 116.289062 323.019531 115.734375 322.496094 115.242188 322.296875 C 113.433594 321.574219 111.644531 320.824219 109.867188 320.042969 C 109.175781 319.738281 108.558594 319.265625 107.492188 319.929688 C 108.683594 320.601562 109.699219 321.179688 110.71875 321.757812 C 110.839844 322.101562 111.1875 322.441406 110.738281 322.796875 C 110.222656 322.808594 109.703125 322.816406 109.1875 322.828125 C 109.1875 322.851562 109.1875 322.871094 109.1875 322.894531 C 109.1875 322.871094 109.1875 322.851562 109.1875 322.828125 C 108.902344 322.785156 108.617188 322.738281 108.328125 322.695312 C 105.476562 321.902344 105.859375 321.863281 104.484375 320.425781 C 103.105469 318.988281 103.492188 318.316406 103.398438 319.800781 C 103.304688 321.289062 102.886719 322.007812 104.539062 323.15625 C 105.207031 323.625 106.097656 323.761719 106.921875 323.761719 C 106.777344 323.894531 106.546875 324.019531 106.183594 324.128906 C 105.238281 324.425781 104.609375 325.160156 104.175781 325.957031 C 103.4375 327.3125 103.015625 328.890625 103.886719 330.101562 C 104.683594 331.210938 105.480469 329.074219 106.609375 329.542969 C 106.246094 329.203125 106.683594 328.996094 106.890625 328.78125 C 108.371094 327.1875 109.15625 325.578125 107 323.761719 C 108.171875 323.75 109.1875 323.464844 109.1875 323.464844 C 109.851562 323.46875 110.519531 323.472656 111.179688 323.480469 C 111.378906 323.453125 111.578125 323.433594 111.777344 323.40625 C 113.457031 323.53125 114.535156 323.945312 114.875 324.09375 C 119.234375 326.101562 123.457031 328.289062 127.050781 331.316406 C 128.664062 332.667969 129.492188 334.195312 129.363281 336.128906 C 129.136719 339.597656 128.738281 343.066406 128.769531 346.53125 C 128.800781 350.175781 126.4375 352.058594 122.996094 353.289062 C 120.691406 354.109375 118.28125 354.710938 115.757812 354.78125 C 113.3125 354.851562 110.96875 355.339844 108.777344 356.242188 C 107.910156 356.597656 107.0625 356.722656 106.152344 356.757812 C 105.328125 356.097656 104.578125 356.316406 103.75 356.859375 C 104.410156 357.304688 105.332031 356.949219 105.828125 357.75 C 104.78125 358.773438 103.585938 359.765625 102.949219 361.0625 C 104.222656 360.144531 105.496094 359.226562 106.769531 358.308594 C 108.023438 357.824219 109.269531 357.304688 110.542969 356.855469 C 111.671875 356.457031 112.601562 356.382812 112.101562 357.894531 C 111.976562 358.28125 111.691406 358.832031 112.457031 358.890625 C 113 358.929688 113.234375 358.53125 113.230469 358 C 113.222656 357.246094 112.972656 356.203125 114.3125 356.160156 C 117.664062 356.058594 121.003906 355.90625 124.167969 355.332031 C 124.511719 356.027344 124.25 356.242188 123.984375 356.386719 C 121.078125 358 119.171875 360.304688 117.734375 362.980469 C 117.246094 363.886719 116.578125 364.742188 115.191406 364.726562 C 113.191406 363.148438 111.304688 363.96875 109.417969 364.953125 C 111.390625 364.261719 113.285156 364.71875 115.175781 365.210938 C 115.496094 366.085938 114.332031 366.238281 114.121094 366.855469 C 112.753906 367.695312 111.390625 368.535156 109.859375 369.480469 C 111.753906 369.464844 113 368.703125 114.152344 367.757812 C 114.503906 367.613281 114.855469 367.460938 115.207031 367.316406 C 115.699219 368.378906 115.707031 369.457031 115.335938 370.542969 C 115.332031 370.5625 115.328125 370.582031 115.320312 370.601562 C 116.925781 369.421875 115.023438 367.769531 116.039062 366.507812 C 117.296875 366.167969 117.882812 363.753906 119.761719 365.710938 C 120.425781 364.707031 118.96875 364.320312 119.195312 363.46875 C 119.84375 361.046875 124.734375 358.246094 127.617188 358.710938 C 128.792969 358.902344 129.492188 359.527344 129.84375 360.511719 C 130.261719 361.683594 129.144531 361.753906 128.398438 362.132812 C 127.007812 362.835938 125.894531 363.777344 125.308594 365.121094 C 124.128906 367.164062 123.488281 369.421875 121.878906 371.289062 C 124.746094 370.019531 125.078125 367.398438 126.289062 365.25 C 126.671875 364.882812 127.03125 364.492188 127.445312 364.148438 C 129.394531 362.539062 129.917969 362.664062 130.757812 364.828125 C 131.125 365.777344 131.535156 366.722656 132.074219 367.601562 C 132.675781 368.578125 132.75 369.019531 131.210938 369.277344 C 129.046875 369.636719 127.214844 370.589844 126.554688 372.644531 C 126.554688 372.644531 126.558594 372.644531 126.558594 372.640625 C 126.566406 372.636719 126.628906 372.675781 126.628906 372.675781 L 126.605469 372.597656 C 126.605469 372.597656 126.601562 372.601562 126.601562 372.601562 C 126.601562 372.601562 126.605469 372.597656 126.605469 372.597656 C 127.300781 372.105469 127.976562 371.582031 128.707031 371.125 C 129.785156 370.445312 131.167969 369.648438 132.289062 370.132812 C 133.40625 370.621094 132.433594 371.953125 132.476562 372.910156 C 132.488281 373.097656 132.554688 373.289062 132.648438 373.722656 C 134.335938 372.011719 134.6875 370.148438 134.5625 368.226562 C 134.484375 367.054688 134.945312 367.082031 135.980469 367.351562 C 138.523438 368.019531 136.257812 369.429688 136.578125 370.519531 C 137.390625 370.085938 137.371094 368.886719 138.609375 369.148438 C 139.1875 370.035156 139.292969 371.160156 140.242188 371.875 C 140.34375 370.59375 140.34375 369.390625 139.265625 368.464844 C 138.511719 367.050781 137.074219 366.339844 135.527344 365.773438 C 134.730469 365.480469 134.128906 365.238281 134.035156 364.300781 C 133.578125 359.667969 136.101562 358.039062 140.960938 359.910156 C 141.640625 360.171875 142.28125 360.503906 142.921875 360.839844 C 144.507812 361.675781 145.132812 362.617188 144.363281 364.390625 C 143.335938 366.765625 143.28125 369.285156 145.066406 371.902344 C 145.066406 370.660156 144.714844 369.585938 145.152344 368.878906 C 145.738281 367.914062 146.960938 368.9375 148.042969 368.914062 C 145.058594 366.484375 145.058594 366.484375 146.523438 364.359375 C 149.148438 367.070312 152.203125 368.867188 156.449219 367.867188 C 154.796875 367.246094 153.015625 366.972656 151.585938 365.855469 C 150.515625 365.019531 150.875 364.515625 151.867188 364.128906 C 153.054688 363.667969 154.3125 363.347656 155.777344 362.894531 C 153.984375 362.433594 152.5625 362.761719 151.398438 363.433594 C 149.953125 364.269531 149.421875 363.773438 148.804688 362.667969 C 147.328125 360.011719 145.003906 358.171875 141.734375 357.222656 C 140.660156 356.910156 139.464844 356.546875 138.910156 355.246094 C 140.851562 355.488281 142.5625 355.761719 144.285156 355.898438 C 146.023438 356.035156 147.78125 356.152344 149.511719 356.046875 C 151.527344 355.929688 152.460938 356.582031 152.363281 358.335938 C 151.398438 358.925781 150.574219 359.578125 150.996094 361.402344 C 151.898438 357.828125 153.503906 359.289062 155.085938 360.441406 C 154.519531 359.824219 154.554688 358.957031 153.652344 358.703125 C 153.425781 356.375 153.617188 356.277344 156.21875 357.0625 C 157.371094 357.410156 158.234375 358.335938 159.570312 358.296875 C 161.335938 359.425781 162.984375 360.675781 164.464844 362.097656 C 163.671875 360.285156 162.472656 358.789062 160.480469 357.878906 Z M 160.480469 357.878906 " fill-opacity="1" fill-rule="nonzero"/></g><path fill="#000000" d="M 133.195312 275.4375 C 135.527344 274.128906 136.398438 272.066406 135.703125 269.820312 C 135.429688 268.933594 134.929688 268.976562 134.332031 269.410156 C 132.535156 270.710938 130.875 272.105469 131.429688 274.449219 C 131.574219 275.378906 132.332031 275.480469 133.195312 275.4375 Z M 133.195312 275.4375 " fill-opacity="1" fill-rule="nonzero"/><path fill="#000000" d="M 154.496094 318.945312 C 154.808594 319.234375 155.207031 319.410156 155.851562 319.246094 C 156.996094 318.949219 157.273438 318.183594 157.332031 317.246094 C 157.441406 315.433594 156.363281 314.097656 155.0625 312.867188 C 154.460938 312.300781 153.964844 312.390625 153.636719 313.179688 C 153.636719 313.179688 151.734375 315.796875 152.621094 317.585938 C 152.53125 317.550781 152.441406 317.488281 152.355469 317.398438 C 151.476562 316.496094 150.382812 314.894531 149.292969 315.421875 C 147.929688 316.085938 148.515625 317.851562 148.882812 319.175781 C 148.902344 319.246094 148.882812 319.316406 148.882812 319.390625 C 149.09375 319.609375 149.269531 319.863281 149.027344 320.109375 C 148.945312 320.1875 148.632812 320.085938 148.421875 320.066406 C 147.363281 319.804688 146.699219 318.167969 145.625 318.847656 C 144.691406 319.433594 145.097656 320.859375 145.265625 321.917969 C 145.566406 323.84375 147.269531 325.425781 148.558594 324.953125 C 150.882812 324.105469 149.605469 322.632812 149.265625 321.332031 C 149.25 321.265625 149.25 321.191406 149.242188 321.117188 C 149.09375 320.902344 148.769531 320.664062 149.140625 320.441406 C 149.535156 320.199219 149.628906 320.570312 149.78125 320.773438 C 150.632812 321.164062 151.277344 322.167969 152.511719 321.324219 C 153.5625 320.605469 153.28125 319.746094 153.117188 318.835938 C 153.050781 318.476562 152.640625 318.121094 152.714844 317.746094 C 153.019531 318.257812 153.578125 318.679688 154.496094 318.945312 Z M 154.496094 318.945312 " fill-opacity="1" fill-rule="nonzero"/></svg>