<svg xmlns="http://www.w3.org/2000/svg"
     viewBox="0 0 98.152344 98.152344"
     preserveAspectRatio="xMidYMid meet">
  <g transform="translate(-77.898438 -94)">
    <path fill="#100f0d"
          fill-rule="nonzero"
          d="M 96.121094 153.851562 C 92.390625 138.972656 117.570312 119.59375 117.570312 119.59375 C 116.347656 124.5625 118.664062 130.578125 118.738281 130.765625 C 117.777344 115.09375 124.132812 113.378906 124.132812 113.378906 C 129.585938 110.65625 138.140625 103.609375 138.140625 103.609375 C 133.949219 112.738281 136.152344 117.425781 136.226562 117.570312 C 136.226562 117.558594 136.222656 117.546875 136.222656 117.535156 C 135.667969 111.996094 141.5625 102.964844 141.5625 102.964844 C 156.089844 91.703125 172.546875 94.738281 172.546875 94.738281 C 172.683594 101.929688 157.660156 121.40625 157.660156 121.40625 C 151.304688 125.613281 141.414062 122.351562 141.414062 122.351562 C 141.433594 122.363281 141.449219 122.378906 141.472656 122.390625 C 146.027344 125.601562 153.457031 125.582031 153.691406 125.578125 C 147.363281 127.984375 135.15625 142.25 135.15625 142.25 C 132.773438 145.117188 130.761719 146.046875 130.761719 146.046875 C 124.445312 149.621094 115.5625 147.722656 115.5625 147.722656 C 119.820312 150.695312 128.742188 149.222656 129.019531 149.179688 C 127.125 150.109375 119.523438 158.613281 119.523438 158.613281 C 113.449219 165.359375 108.855469 164.902344 108.855469 164.902344 C 103.769531 165.515625 99.863281 168.738281 99.863281 168.738281 C 103.5625 168.519531 106.707031 170.769531 106.707031 170.769531 C 102.007812 169.425781 95.992188 172.675781 95.804688 172.78125 C 99.421875 172.285156 100.636719 174.078125 100.636719 174.078125 C 98.25 173.398438 93.695312 176.414062 93.695312 176.414062 C 92.4375 177.402344 91.339844 177.910156 90.476562 178.164062 C 91.847656 175.148438 93.371094 172.175781 95.011719 169.246094 C 97.214844 165.320312 99.636719 161.476562 102.253906 157.722656 C 104.878906 153.976562 107.699219 150.324219 110.65625 146.761719 L 112.917969 144.113281 C 113.667969 143.230469 114.46875 142.382812 115.246094 141.511719 L 116.414062 140.214844 C 116.804688 139.78125 117.21875 139.367188 117.617188 138.941406 L 120.039062 136.402344 C 123.347656 133.082031 126.722656 129.800781 130.285156 126.691406 C 137.355469 120.425781 144.894531 114.578125 152.773438 109.15625 C 144.773438 114.421875 137.097656 120.132812 129.855469 126.285156 C 126.210938 129.339844 122.75 132.570312 119.34375 135.847656 L 116.847656 138.351562 C 116.433594 138.773438 116.007812 139.183594 115.605469 139.613281 L 114.398438 140.898438 C 113.597656 141.757812 112.769531 142.597656 111.992188 143.472656 L 109.652344 146.101562 C 106.585938 149.636719 103.652344 153.269531 100.90625 157.011719 C 98.171875 160.761719 95.625 164.613281 93.289062 168.558594 C 91.433594 171.699219 89.714844 174.902344 88.171875 178.164062 C 88.101562 178.324219 88.035156 178.480469 87.96875 178.640625 C 87.113281 180.675781 86.347656 182.734375 85.664062 184.796875 C 85.316406 185.828125 85.007812 186.867188 84.714844 187.902344 C 84.574219 188.417969 84.433594 188.9375 84.308594 189.453125 C 84.246094 189.710938 84.183594 189.96875 84.132812 190.226562 C 84.074219 190.476562 84.019531 190.746094 83.980469 190.96875 L 83.972656 191 L 83.96875 191.023438 C 83.835938 191.671875 83.152344 192.15625 82.441406 192.101562 C 81.730469 192.046875 81.265625 191.472656 81.398438 190.820312 C 81.460938 190.511719 81.523438 190.25 81.589844 189.972656 C 81.65625 189.695312 81.730469 189.425781 81.804688 189.152344 C 81.945312 188.609375 82.105469 188.074219 82.265625 187.535156 C 82.59375 186.464844 82.945312 185.398438 83.324219 184.34375 C 84.082031 182.226562 84.917969 180.132812 85.84375 178.070312 C 85.992188 177.730469 86.148438 177.390625 86.300781 177.050781 C 83.449219 173.527344 87.144531 164.847656 87.144531 164.847656 C 87.386719 168.023438 89.894531 168.460938 89.894531 168.460938 C 88.085938 164.449219 90.894531 159.242188 90.894531 159.242188 C 93.679688 153.355469 91.082031 149.578125 91.082031 149.578125 C 94.113281 150.554688 96.03125 153.710938 96.121094 153.851562" />
  </g>
</svg>