<svg xmlns="http://www.w3.org/2000/svg"
     viewBox="0 0 90.707031 90.707031"
     preserveAspectRatio="xMidYMid meet">
    <g transform="translate(-78.78125 -71.054688)">
        <path fill="#000000"
              fill-rule="evenodd"
              d="M 152.078125 102.179688 L 112.289062 102.179688 C 112.058594 102.179688 111.847656 102.273438 111.695312 102.425781 C 111.542969 102.578125 111.449219 102.789062 111.449219 103.019531 L 111.449219 113.914062 C 111.449219 114.144531 111.542969 114.351562 111.695312 114.503906 C 111.847656 114.65625 112.058594 114.75 112.289062 114.75 L 152.078125 114.75 C 152.207031 114.75 152.3125 114.730469 152.402344 114.695312 C 152.496094 114.65625 152.585938 114.59375 152.671875 114.503906 L 158.132812 109.058594 C 158.292969 108.894531 158.375 108.679688 158.375 108.464844 C 158.375 108.25 158.292969 108.03125 158.132812 107.871094 L 152.671875 102.425781 C 152.585938 102.339844 152.496094 102.273438 152.402344 102.238281 L 152.375 102.226562 C 152.289062 102.195312 152.191406 102.179688 152.078125 102.179688 Z M 126.789062 77.878906 L 126.789062 73.207031 L 121.5 73.207031 L 121.5 77.878906 Z M 119.371094 77.878906 L 119.371094 72.144531 C 119.371094 71.554688 119.847656 71.082031 120.4375 71.082031 L 127.855469 71.082031 C 128.441406 71.082031 128.917969 71.554688 128.917969 72.144531 L 128.917969 77.878906 L 136 77.878906 C 136.820312 77.878906 137.5625 78.214844 138.097656 78.75 C 138.636719 79.285156 138.96875 80.027344 138.96875 80.84375 L 138.96875 91.738281 C 138.96875 92.554688 138.636719 93.292969 138.097656 93.832031 C 137.5625 94.367188 136.820312 94.699219 136 94.699219 L 128.917969 94.699219 L 128.917969 100.054688 L 152.078125 100.054688 C 152.453125 100.054688 152.808594 100.121094 153.148438 100.253906 L 153.21875 100.277344 C 153.574219 100.425781 153.894531 100.640625 154.179688 100.921875 L 159.636719 106.375 C 160.214844 106.953125 160.503906 107.710938 160.503906 108.464844 C 160.503906 109.222656 160.214844 109.984375 159.636719 110.558594 L 154.179688 116.007812 C 153.894531 116.289062 153.574219 116.503906 153.21875 116.652344 L 153.214844 116.652344 C 152.855469 116.800781 152.476562 116.875 152.078125 116.875 L 128.917969 116.875 L 128.917969 122.230469 L 136 122.230469 C 136.820312 122.230469 137.5625 122.5625 138.097656 123.101562 C 138.636719 123.636719 138.96875 124.378906 138.96875 125.195312 L 138.96875 136.089844 C 138.96875 136.90625 138.636719 137.644531 138.097656 138.183594 C 137.5625 138.71875 136.820312 139.050781 136 139.050781 L 128.917969 139.050781 L 128.917969 160.675781 C 128.917969 161.261719 128.441406 161.738281 127.855469 161.738281 L 120.4375 161.738281 C 119.847656 161.738281 119.371094 161.261719 119.371094 160.675781 L 119.371094 139.050781 L 96.210938 139.050781 C 95.8125 139.050781 95.4375 138.976562 95.078125 138.828125 L 95.074219 138.828125 C 94.722656 138.683594 94.402344 138.46875 94.113281 138.179688 L 88.652344 132.734375 L 88.585938 132.664062 C 88.054688 132.09375 87.785156 131.363281 87.785156 130.640625 C 87.785156 129.882812 88.074219 129.125 88.652344 128.546875 L 94.113281 123.097656 L 94.183594 123.035156 C 94.449219 122.785156 94.746094 122.589844 95.074219 122.457031 C 95.429688 122.308594 95.8125 122.230469 96.210938 122.230469 L 119.371094 122.230469 L 119.371094 116.875 L 112.289062 116.875 C 111.46875 116.875 110.726562 116.542969 110.191406 116.007812 C 109.652344 115.46875 109.320312 114.730469 109.320312 113.914062 L 109.320312 103.019531 C 109.320312 102.203125 109.652344 101.460938 110.191406 100.925781 C 110.726562 100.390625 111.46875 100.054688 112.289062 100.054688 L 119.371094 100.054688 L 119.371094 94.699219 L 96.210938 94.699219 C 95.8125 94.699219 95.433594 94.625 95.078125 94.476562 L 95.074219 94.476562 C 94.714844 94.328125 94.394531 94.113281 94.113281 93.832031 L 88.652344 88.382812 C 88.074219 87.804688 87.785156 87.046875 87.785156 86.289062 C 87.785156 85.53125 88.074219 84.773438 88.652344 84.195312 L 94.113281 78.746094 L 94.183594 78.683594 C 94.449219 78.433594 94.746094 78.238281 95.074219 78.105469 C 95.429688 77.957031 95.8125 77.878906 96.210938 77.878906 Z M 121.5 94.699219 L 121.5 100.054688 L 126.789062 100.054688 L 126.789062 94.699219 Z M 121.5 116.875 L 121.5 122.230469 L 126.789062 122.230469 L 126.789062 116.875 Z M 121.5 139.050781 L 121.5 159.613281 L 126.789062 159.613281 L 126.789062 139.050781 Z M 136 124.355469 L 96.210938 124.355469 C 96.085938 124.355469 95.976562 124.375 95.886719 124.414062 L 95.882812 124.414062 C 95.804688 124.445312 95.730469 124.496094 95.65625 124.5625 L 90.160156 130.050781 C 89.996094 130.210938 89.914062 130.425781 89.914062 130.640625 C 89.914062 130.84375 89.984375 131.042969 90.121094 131.195312 C 90.589844 131.640625 95.617188 136.671875 95.617188 136.683594 C 95.699219 136.769531 95.792969 136.828125 95.886719 136.871094 C 95.976562 136.90625 96.085938 136.925781 96.210938 136.925781 L 136 136.925781 C 136.230469 136.925781 136.441406 136.832031 136.59375 136.679688 C 136.746094 136.527344 136.839844 136.320312 136.839844 136.089844 L 136.839844 125.195312 C 136.839844 124.964844 136.746094 124.753906 136.59375 124.601562 C 136.441406 124.449219 136.230469 124.355469 136 124.355469 Z M 136 80.003906 L 96.210938 80.003906 C 96.085938 80.003906 95.976562 80.023438 95.886719 80.0625 L 95.882812 80.0625 C 95.804688 80.09375 95.730469 80.144531 95.65625 80.210938 L 90.160156 85.699219 C 89.996094 85.859375 89.914062 86.074219 89.914062 86.289062 C 89.914062 86.503906 89.996094 86.71875 90.160156 86.882812 L 95.617188 92.328125 C 95.703125 92.417969 95.796875 92.480469 95.886719 92.519531 C 95.976562 92.554688 96.085938 92.574219 96.210938 92.574219 L 136 92.574219 C 136.230469 92.574219 136.441406 92.480469 136.59375 92.328125 C 136.746094 92.175781 136.839844 91.96875 136.839844 91.738281 L 136.839844 80.84375 C 136.839844 80.613281 136.746094 80.402344 136.59375 80.25 C 136.441406 80.097656 136.230469 80.003906 136 80.003906 Z M 136 80.003906" />
    </g>
</svg>