<svg xmlns="http://www.w3.org/2000/svg" xmlns:xlink="http://www.w3.org/1999/xlink" width="1366" zoomAndPan="magnify"
     viewBox="0 0 1024.5 576" height="768" preserveAspectRatio="xMidYMid meet" version="1.0">
    <defs>
        <clipPath id="92f56523a7">
            <path d="M 0 0.140625 L 1024 0.140625 L 1024 575.859375 L 0 575.859375 Z M 0 0.140625 "
                  clip-rule="nonzero"/>
        </clipPath>
        <clipPath id="b35a3f61ec">
            <path d="M 97.738281 165 L 106 165 L 106 170 L 97.738281 170 Z M 97.738281 165 " clip-rule="nonzero"/>
        </clipPath>
        <clipPath id="dc7a1097c5">
            <path d="M 136 115.078125 L 142 115.078125 L 142 122 L 136 122 Z M 136 115.078125 " clip-rule="nonzero"/>
        </clipPath>
        <clipPath id="dba0d837e8">
            <path d="M 113 132 L 181 132 L 181 220.027344 L 113 220.027344 Z M 113 132 " clip-rule="nonzero"/>
        </clipPath>
        <clipPath id="4661e53343">
            <path d="M 142 115.078125 L 147 115.078125 L 147 122 L 142 122 Z M 142 115.078125 " clip-rule="nonzero"/>
        </clipPath>
    </defs>
    <g clip-path="url(#92f56523a7)">
        <path fill="#ffffff" d="M 0 0.140625 L 1024 0.140625 L 1024 575.859375 L 0 575.859375 Z M 0 0.140625 "
              fill-opacity="1" fill-rule="nonzero"/>
    </g>
    <g clip-path="url(#b35a3f61ec)">
        <path fill="#000000"
              d="M 104.859375 166.449219 C 103.972656 165.035156 102.519531 165.738281 101.328125 166.054688 C 100.378906 166.308594 99.699219 167.015625 99.058594 167.683594 C 98.707031 168.054688 98.515625 168.621094 97.757812 168.507812 C 97.757812 168.945312 97.757812 169.378906 97.757812 169.8125 C 99.660156 169.929688 101.617188 170.183594 103.285156 169.136719 C 104.285156 168.507812 105.75 167.878906 104.859375 166.449219 Z M 104.859375 166.449219 "
              fill-opacity="1" fill-rule="nonzero"/>
    </g>
    <path fill="#000000"
          d="M 131.6875 134.226562 C 127.125 132.3125 126.371094 132.351562 125.789062 134.589844 C 126.925781 134.289062 126.746094 135.316406 127.058594 135.714844 C 127.84375 136.714844 128.832031 137.410156 130.117188 137.816406 C 130.859375 138.050781 131.507812 138.027344 132.105469 137.40625 C 132.617188 136.875 132.65625 136.402344 132.378906 135.828125 C 132.164062 135.382812 131.617188 135.058594 131.738281 134.492188 C 134.5 134.21875 135.402344 133.066406 134.519531 130.738281 C 134.21875 129.9375 133.601562 129.214844 133.039062 128.511719 C 132.726562 128.125 132.421875 127.546875 131.75 127.617188 C 130.859375 127.710938 131.015625 128.484375 130.816406 128.988281 C 130.085938 130.792969 130.453125 132.542969 131.6875 134.226562 Z M 131.6875 134.226562 "
          fill-opacity="1" fill-rule="nonzero"/>
    <path fill="#000000"
          d="M 159.996094 124.898438 C 159.59375 126.703125 159.730469 128.503906 161.421875 129.898438 C 161.9375 130.324219 162.421875 130.914062 163.320312 130.460938 C 164.058594 130.085938 164.675781 129.722656 164.566406 128.816406 C 164.507812 128.304688 164.042969 127.507812 164.871094 127.277344 C 166.363281 126.859375 167.011719 126.121094 166.941406 124.753906 C 166.878906 123.542969 166.394531 122.507812 165.546875 121.605469 C 165.097656 121.128906 164.765625 120.300781 163.945312 120.402344 C 162.886719 120.539062 163.128906 121.542969 162.921875 122.175781 C 162.65625 122.980469 162.621094 123.839844 162.5 124.589844 C 161.648438 125.21875 160.433594 122.949219 159.996094 124.898438 Z M 159.996094 124.898438 "
          fill-opacity="1" fill-rule="nonzero"/>
    <path fill="#000000"
          d="M 152.417969 126.949219 C 152.378906 127.472656 152.984375 128.101562 153.652344 128.136719 C 155.613281 128.234375 156.875 127.199219 157.824219 125.847656 C 158.703125 124.601562 158.632812 122.734375 160.945312 122.425781 C 161.199219 122.394531 161.4375 121.707031 161.511719 121.296875 C 161.875 119.3125 160.714844 117.828125 159.242188 116.5 C 158.59375 115.917969 158.128906 116.175781 157.820312 116.90625 C 156.960938 118.925781 157.003906 120.847656 158.699219 122.675781 C 157.5 123.011719 156.457031 123.222656 155.503906 123.59375 C 153.835938 124.242188 152.542969 125.261719 152.417969 126.949219 Z M 152.417969 126.949219 "
          fill-opacity="1" fill-rule="nonzero"/>
    <path fill="#000000"
          d="M 124.367188 130.199219 C 124.777344 131.355469 126.511719 132.011719 128.117188 131.863281 C 128.722656 131.804688 129.292969 131.136719 129.246094 130.601562 C 129.128906 129.199219 128.054688 128.269531 126.738281 127.582031 C 125.535156 126.953125 123.003906 127.054688 124.925781 124.832031 C 125.074219 124.660156 124.636719 124.046875 124.390625 123.679688 C 123.28125 122.015625 121.398438 121.519531 119.285156 121.234375 C 118.292969 121.253906 118.074219 121.503906 118.742188 122.671875 C 120.277344 125.351562 123.289062 127.167969 124.367188 130.199219 Z M 124.367188 130.199219 "
          fill-opacity="1" fill-rule="nonzero"/>
    <path fill="#000000"
          d="M 116.710938 178.191406 C 116.492188 179.539062 115.617188 181.425781 116.910156 181.996094 C 118.21875 182.574219 119.59375 180.921875 120.332031 179.78125 C 120.984375 178.773438 121.609375 178.125 122.929688 177.640625 C 124.902344 176.917969 126.074219 175.367188 126.296875 173.402344 C 126.382812 172.628906 125.914062 172.25 125.234375 171.871094 C 124.488281 171.457031 123.980469 171.738281 123.460938 172.117188 C 122.753906 172.632812 121.964844 173.210938 121.894531 174.007812 C 121.667969 176.644531 119.644531 176.117188 117.773438 175.925781 C 118.511719 177.039062 116.851562 177.324219 116.710938 178.191406 Z M 116.710938 178.191406 "
          fill-opacity="1" fill-rule="nonzero"/>
    <path fill="#000000"
          d="M 153.492188 144.964844 C 153.699219 146.226562 154.507812 147.273438 155.910156 147.808594 C 156.589844 148.070312 157.378906 147.695312 157.648438 147.28125 C 158.414062 146.089844 157.90625 144.890625 157.175781 143.796875 C 156.890625 143.367188 156.425781 143.027344 156.105469 142.609375 C 155.273438 141.53125 152.882812 141.65625 153.125 139.71875 C 153.128906 139.691406 152.542969 139.523438 152.253906 139.5625 C 150.207031 139.820312 148.375 140.457031 147.339844 142.144531 C 146.988281 142.714844 146.335938 143.28125 147.285156 144.050781 C 148.113281 144.714844 148.828125 144.738281 149.746094 144.40625 C 151.289062 143.859375 152.082031 142.664062 153.449219 141.566406 C 153.453125 142.703125 153.3125 143.855469 153.492188 144.964844 Z M 153.492188 144.964844 "
          fill-opacity="1" fill-rule="nonzero"/>
    <path fill="#000000"
          d="M 150.511719 138.230469 C 152.214844 137.4375 152.671875 135.789062 153.75 133.941406 C 154.113281 135.179688 154.328125 135.972656 155.441406 136.085938 C 156.539062 136.199219 157.078125 135.488281 157.613281 134.863281 C 158.433594 133.894531 158.703125 132.765625 158.585938 131.578125 C 158.515625 130.890625 158.757812 129.957031 157.859375 129.660156 C 157.101562 129.414062 156.421875 130.164062 156.085938 130.636719 C 154.609375 132.703125 152.847656 134.261719 149.832031 134.433594 C 149.027344 134.476562 148.304688 135.0625 147.882812 135.6875 C 147.351562 136.472656 146.15625 137.144531 147.246094 138.304688 C 148.421875 139.554688 149.507812 138.699219 150.511719 138.230469 Z M 150.511719 138.230469 "
          fill-opacity="1" fill-rule="nonzero"/>
    <path fill="#000000"
          d="M 172.828125 130.113281 C 171.9375 131.113281 171.277344 132.175781 171.539062 133.460938 C 171.664062 134.054688 172.511719 134.503906 172.984375 134.441406 C 174.460938 134.257812 175.25 133.328125 175.8125 132.109375 C 176.191406 131.28125 176.832031 130.210938 178.324219 131.210938 C 178.660156 131.4375 179.089844 131.117188 179.324219 130.789062 C 180.222656 130.628906 180.730469 130.039062 181.125 129.417969 C 181.953125 128.125 182.8125 126.097656 181.714844 125.433594 C 180.351562 124.601562 178.976562 126.34375 177.871094 127.355469 C 177.714844 127.5 177.667969 127.734375 177.570312 127.929688 C 175.871094 128.460938 174.039062 128.746094 172.828125 130.113281 Z M 172.828125 130.113281 "
          fill-opacity="1" fill-rule="nonzero"/>
    <path fill="#000000"
          d="M 117.726562 175.921875 C 117.726562 175.921875 117.734375 175.914062 117.742188 175.90625 C 117.734375 175.914062 117.726562 175.921875 117.726562 175.921875 C 117.742188 175.925781 117.757812 175.925781 117.773438 175.925781 C 117.765625 175.914062 117.765625 175.90625 117.757812 175.894531 C 117.722656 175.875 117.691406 175.867188 117.65625 175.851562 C 117.679688 175.875 117.695312 175.894531 117.726562 175.921875 Z M 117.726562 175.921875 "
          fill-opacity="1" fill-rule="nonzero"/>
    <path fill="#000000"
          d="M 116.152344 128.230469 C 116.082031 130.429688 117.691406 132.78125 119.1875 132.636719 C 120.328125 132.523438 120.910156 131.867188 120.835938 130.921875 C 120.859375 129.195312 118.226562 125.921875 117 126.199219 C 115.859375 126.457031 116.171875 127.484375 116.152344 128.230469 Z M 116.152344 128.230469 "
          fill-opacity="1" fill-rule="nonzero"/>
    <g clip-path="url(#dc7a1097c5)">
        <path fill="#000000"
              d="M 140.101562 121.886719 C 140.917969 121.570312 141.355469 121.152344 141.390625 120.273438 C 141.46875 118.238281 140.214844 116.882812 138.613281 115.65625 C 137.859375 115.078125 137.402344 115.378906 137.199219 116.085938 C 137.035156 116.644531 136.988281 117.222656 136.886719 117.796875 C 136.832031 119.089844 137.230469 120.25 138.226562 121.203125 C 138.695312 121.65625 139.183594 122.246094 140.101562 121.886719 Z M 140.101562 121.886719 "
              fill-opacity="1" fill-rule="nonzero"/>
    </g>
    <path fill="#000000"
          d="M 125.730469 134.632812 C 125.746094 134.636719 125.757812 134.644531 125.773438 134.648438 C 125.773438 134.648438 125.738281 134.617188 125.730469 134.605469 L 125.777344 134.648438 C 125.78125 134.628906 125.789062 134.609375 125.789062 134.589844 C 125.769531 134.597656 125.75 134.597656 125.726562 134.605469 C 125.726562 134.617188 125.730469 134.625 125.730469 134.632812 Z M 125.730469 134.632812 "
          fill-opacity="1" fill-rule="nonzero"/>
    <path fill="#000000"
          d="M 123.335938 132.691406 C 122.699219 132.347656 122.148438 132.011719 121.890625 132.953125 C 121.378906 134.84375 121.289062 136.6875 122.917969 138.261719 C 123.414062 138.742188 123.925781 139.179688 124.84375 138.855469 C 125.6875 138.558594 125.972656 138.023438 125.957031 137.34375 C 125.9375 136.4375 125.8125 135.535156 125.730469 134.628906 C 124.566406 134.335938 124.285156 133.207031 123.335938 132.691406 Z M 123.335938 132.691406 "
          fill-opacity="1" fill-rule="nonzero"/>
    <path fill="#000000"
          d="M 165.777344 131.355469 C 165.929688 132.769531 166.082031 134.15625 167.609375 134.988281 C 168.386719 135.40625 169.292969 134.996094 169.582031 134.546875 C 170.410156 133.277344 170.21875 131.898438 169.398438 130.636719 C 168.804688 129.71875 168.175781 128.269531 166.980469 128.511719 C 165.734375 128.765625 166.15625 130.378906 165.777344 131.355469 Z M 165.777344 131.355469 "
          fill-opacity="1" fill-rule="nonzero"/>
    <path fill="#000000"
          d="M 181.710938 151.050781 C 181.019531 151.351562 180.792969 152.226562 181.15625 152.742188 C 182.054688 154.019531 183.582031 154.382812 185.566406 154.355469 C 186.382812 154.074219 188.199219 154.632812 188.554688 153.480469 C 188.890625 152.382812 187.203125 151.871094 186.199219 151.324219 C 184.792969 150.550781 183.214844 150.398438 181.710938 151.050781 Z M 181.710938 151.050781 "
          fill-opacity="1" fill-rule="nonzero"/>
    <path fill="#000000"
          d="M 102.675781 158.945312 C 103.441406 159.1875 104.132812 159.523438 104.878906 158.726562 C 105.550781 158.007812 105.414062 157.484375 104.972656 156.78125 C 103.921875 155.09375 102.210938 154.363281 100.144531 154.082031 C 98.9375 153.917969 98.625 154.273438 99.085938 155.285156 C 99.808594 156.875 100.675781 158.324219 102.675781 158.945312 Z M 102.675781 158.945312 "
          fill-opacity="1" fill-rule="nonzero"/>
    <path fill="#000000"
          d="M 165.324219 183.777344 C 166.230469 184.417969 166.753906 184.652344 167.164062 183.371094 C 168.144531 180.308594 166.71875 178.152344 163.222656 177.625 C 162.8125 179.957031 162.980469 182.128906 165.324219 183.777344 Z M 165.324219 183.777344 "
          fill-opacity="1" fill-rule="nonzero"/>
    <path fill="#000000"
          d="M 181.855469 174.871094 C 180.367188 174.632812 179.472656 175.484375 179.902344 176.726562 C 180.433594 178.261719 183.125 180.070312 184.96875 180.160156 C 185.683594 180.195312 186.109375 180.03125 185.964844 179.28125 C 185.925781 177.460938 183.828125 175.1875 181.855469 174.871094 Z M 181.855469 174.871094 "
          fill-opacity="1" fill-rule="nonzero"/>
    <path fill="#000000"
          d="M 106.976562 168.398438 C 108.710938 169.015625 113.070312 166.410156 113.042969 164.757812 C 113.027344 163.65625 111.917969 163.019531 110.566406 163.410156 C 108.285156 164.070312 107.265625 165.703125 106.566406 167.539062 C 106.429688 167.917969 106.464844 168.21875 106.976562 168.398438 Z M 106.976562 168.398438 "
          fill-opacity="1" fill-rule="nonzero"/>
    <path fill="#000000"
          d="M 106.058594 169.890625 C 104 169.96875 101.203125 174.007812 102.089844 175.382812 C 102.371094 175.816406 102.839844 175.914062 103.359375 175.703125 C 105.371094 174.882812 107.0625 173.816406 107.59375 171.769531 C 107.925781 170.476562 106.851562 170.234375 106.058594 169.890625 Z M 106.058594 169.890625 "
          fill-opacity="1" fill-rule="nonzero"/>
    <path fill="#000000"
          d="M 144.507812 126.855469 C 144.574219 127.527344 144.941406 127.824219 145.570312 128.148438 C 146.332031 128.539062 146.855469 128.273438 147.355469 127.894531 C 148.621094 126.929688 149.152344 125.667969 149.121094 123.921875 C 149.078125 123.644531 149.007812 123.070312 148.917969 122.496094 C 148.8125 121.828125 148.480469 121.671875 147.738281 121.996094 C 145.976562 122.765625 144.351562 125.226562 144.507812 126.855469 Z M 144.507812 126.855469 "
          fill-opacity="1" fill-rule="nonzero"/>
    <path fill="#000000"
          d="M 183.21875 167.683594 C 182.96875 168.203125 182.601562 168.691406 183.308594 169.234375 C 183.84375 169.648438 184.3125 169.902344 185.0625 169.792969 C 186.910156 169.527344 189.445312 167.066406 189.453125 165.519531 C 189.539062 164.925781 189.273438 164.707031 188.632812 164.660156 C 186.859375 164.535156 183.964844 166.117188 183.21875 167.683594 Z M 183.21875 167.683594 "
          fill-opacity="1" fill-rule="nonzero"/>
    <path fill="#000000"
          d="M 184.226562 164.609375 C 186.398438 163.9375 187.378906 162.40625 188 160.640625 C 188.273438 159.859375 187.769531 159.597656 186.65625 159.800781 C 184.875 160.015625 183.085938 160.664062 182.046875 162.316406 C 181.730469 162.820312 181.140625 163.359375 181.839844 164.054688 C 182.53125 164.746094 183.265625 164.90625 184.226562 164.609375 Z M 184.226562 164.609375 "
          fill-opacity="1" fill-rule="nonzero"/>
    <path fill="#000000"
          d="M 151.25 123.625 C 152.125 123.996094 152.609375 123.457031 153.148438 123.011719 C 154.316406 122.046875 154.578125 120.789062 154.722656 119.632812 C 154.714844 117.820312 154.234375 117.078125 153.355469 117.363281 C 151.644531 117.921875 149.886719 120.503906 150.0625 122.109375 C 150.144531 122.835938 150.523438 123.316406 151.25 123.625 Z M 151.25 123.625 "
          fill-opacity="1" fill-rule="nonzero"/>
    <path fill="#000000"
          d="M 136.457031 132.851562 C 135.886719 132.75 135.546875 132.910156 135.472656 133.496094 C 135.273438 135.105469 138.265625 137.964844 140.429688 137.941406 C 141.199219 137.566406 142.488281 137.414062 141.761719 135.929688 C 140.75 133.867188 138.699219 133.253906 136.457031 132.851562 Z M 136.457031 132.851562 "
          fill-opacity="1" fill-rule="nonzero"/>
    <path fill="#000000"
          d="M 136.214844 128.316406 C 137.132812 127.996094 137.765625 127.472656 137.589844 126.644531 C 137.59375 124.585938 136.332031 123.277344 134.800781 122.097656 C 134.109375 121.5625 133.519531 121.671875 133.371094 122.457031 C 133.03125 124.25 132.746094 126.066406 134.355469 127.59375 C 134.855469 128.070312 135.332031 128.625 136.214844 128.316406 Z M 136.214844 128.316406 "
          fill-opacity="1" fill-rule="nonzero"/>
    <path fill="#000000"
          d="M 181.242188 145.097656 C 181.058594 146.25 181.605469 147.097656 183.191406 146.886719 C 185.046875 146.636719 187.519531 144.234375 187.664062 142.601562 C 187.777344 142.058594 187.539062 141.835938 186.886719 141.765625 C 184.96875 141.554688 181.492188 143.5 181.242188 145.097656 Z M 181.242188 145.097656 "
          fill-opacity="1" fill-rule="nonzero"/>
    <path fill="#000000"
          d="M 189.332031 172.210938 C 187.902344 171.535156 186.324219 171.265625 184.886719 172.121094 C 184.476562 172.367188 184.007812 173.085938 184.425781 173.664062 C 185.363281 174.945312 186.878906 175.277344 188.789062 175.386719 C 189.640625 175.011719 191.53125 175.535156 191.835938 174.480469 C 192.171875 173.3125 190.445312 172.738281 189.332031 172.210938 Z M 189.332031 172.210938 "
          fill-opacity="1" fill-rule="nonzero"/>
    <path fill="#000000"
          d="M 102.144531 149.433594 C 103.808594 149.949219 105.53125 150.253906 107.199219 149.523438 C 108.085938 149.136719 109.324219 148.824219 108.933594 147.550781 C 108.59375 146.433594 107.609375 146.195312 106.53125 146.285156 C 104.542969 146.171875 103.144531 147.050781 101.804688 148.046875 C 100.929688 148.699219 101.253906 149.160156 102.144531 149.433594 Z M 102.144531 149.433594 "
          fill-opacity="1" fill-rule="nonzero"/>
    <path fill="#000000"
          d="M 106.367188 160.929688 C 105.128906 160.191406 103.667969 160.285156 102.3125 160.71875 C 100.992188 161.144531 99.097656 161.875 99.265625 162.910156 C 99.453125 164.0625 101.503906 163.949219 102.785156 164.09375 C 104.425781 164.039062 105.863281 163.699219 106.746094 162.5 C 107.125 161.980469 106.785156 161.183594 106.367188 160.929688 Z M 106.367188 160.929688 "
          fill-opacity="1" fill-rule="nonzero"/>
    <path fill="#000000"
          d="M 181.945312 149.46875 C 182.175781 148.574219 180.660156 147.980469 179.695312 147.464844 C 178.191406 146.65625 176.570312 146.414062 175.007812 147.175781 C 174.429688 147.457031 174.152344 148.320312 174.589844 148.894531 C 175.550781 150.144531 177.078125 150.453125 179 150.457031 C 179.816406 150.089844 181.632812 150.699219 181.945312 149.46875 Z M 181.945312 149.46875 "
          fill-opacity="1" fill-rule="nonzero"/>
    <path fill="#000000"
          d="M 140.320312 124.117188 C 139.089844 124.328125 139.246094 125.871094 139.1875 126.292969 C 138.984375 128.386719 139.46875 129.691406 140.824219 130.5625 C 141.394531 130.933594 142.40625 130.773438 142.796875 130.21875 C 143.691406 128.949219 143.484375 127.574219 142.714844 126.296875 C 142.144531 125.363281 141.492188 123.917969 140.320312 124.117188 Z M 140.320312 124.117188 "
          fill-opacity="1" fill-rule="nonzero"/>
    <path fill="#000000"
          d="M 164.550781 139.609375 C 165.878906 139.773438 166.429688 138.648438 166.265625 137.652344 C 166.300781 135.898438 164.410156 132.691406 163.511719 132.953125 C 161.832031 133.4375 162.164062 134.972656 162.121094 136.089844 C 162.066406 137.621094 162.4375 139.347656 164.550781 139.609375 Z M 164.550781 139.609375 "
          fill-opacity="1" fill-rule="nonzero"/>
    <path fill="#000000"
          d="M 169.945312 157.273438 C 170.1875 155.503906 167.214844 152.449219 165.0625 152.507812 C 164.121094 152.9375 163.363281 153.558594 163.941406 154.765625 C 164.871094 156.707031 166.835938 157.417969 168.964844 157.90625 C 169.582031 158.046875 169.867188 157.820312 169.945312 157.273438 Z M 169.945312 157.273438 "
          fill-opacity="1" fill-rule="nonzero"/>
    <path fill="#000000"
          d="M 111.101562 138.140625 C 111.738281 138.296875 112.265625 138.472656 112.828125 137.824219 C 113.347656 137.222656 113.511719 136.765625 113.125 136.09375 C 112.101562 134.300781 110.339844 133.515625 108.625 133.289062 C 107.371094 133.171875 106.519531 133.097656 106.921875 134.179688 C 107.621094 136.039062 108.773438 137.566406 111.101562 138.140625 Z M 111.101562 138.140625 "
          fill-opacity="1" fill-rule="nonzero"/>
    <path fill="#000000"
          d="M 127.726562 125.65625 C 128.234375 126.054688 128.726562 126.421875 129.472656 126.09375 C 130.179688 125.78125 130.683594 125.382812 130.660156 124.609375 C 130.613281 123.082031 129.964844 121.800781 128.605469 120.84375 C 127.996094 120.414062 127.4375 119.539062 126.605469 119.828125 C 125.757812 120.125 126.101562 121.09375 125.949219 121.707031 C 125.957031 123.269531 126.394531 124.609375 127.726562 125.65625 Z M 127.726562 125.65625 "
          fill-opacity="1" fill-rule="nonzero"/>
    <path fill="#000000"
          d="M 176.664062 154.796875 C 176.746094 153.234375 174.488281 150.636719 172.65625 150.269531 C 171.203125 149.976562 170.269531 150.78125 170.5625 152.0625 C 170.921875 153.65625 173.851562 155.597656 175.75 155.507812 C 176.34375 155.550781 176.632812 155.382812 176.664062 154.796875 Z M 176.664062 154.796875 "
          fill-opacity="1" fill-rule="nonzero"/>
    <path fill="#000000"
          d="M 113.949219 155.222656 C 113.464844 154.636719 113.0625 154.269531 112.171875 154.375 C 110.222656 154.609375 108.777344 155.488281 107.742188 156.898438 C 107.410156 157.355469 106.691406 157.769531 107.128906 158.40625 C 107.488281 158.917969 108.195312 158.648438 108.746094 158.734375 C 110.753906 158.722656 112.527344 158.246094 113.753906 156.757812 C 114.128906 156.308594 114.503906 155.886719 113.949219 155.222656 Z M 113.949219 155.222656 "
          fill-opacity="1" fill-rule="nonzero"/>
    <path fill="#000000"
          d="M 117.535156 137.875 C 118.296875 138.128906 118.875 137.964844 119.507812 137.429688 C 120.25 136.804688 119.972656 136.25 119.667969 135.6875 C 118.636719 133.792969 116.601562 133.210938 114.292969 132.761719 C 113.648438 132.746094 113.472656 133.152344 113.632812 133.738281 C 114.160156 135.671875 115.332031 137.148438 117.535156 137.875 Z M 117.535156 137.875 "
          fill-opacity="1" fill-rule="nonzero"/>
    <path fill="#000000"
          d="M 176.695312 135.664062 C 176.917969 135.40625 177.25 135.511719 177.59375 135.601562 C 179.953125 136.234375 181.773438 135.363281 183.472656 134.050781 C 184.644531 133.148438 184.636719 132.617188 183.015625 132.207031 C 179.507812 131.328125 177.53125 132.378906 176.695312 135.664062 Z M 176.695312 135.664062 "
          fill-opacity="1" fill-rule="nonzero"/>
    <path fill="#000000"
          d="M 109.308594 174.34375 C 111.355469 173.667969 113.152344 172.679688 113.746094 170.644531 C 113.964844 169.898438 113.855469 169.265625 113.039062 168.769531 C 112.253906 168.292969 111.664062 168.585938 111.015625 168.945312 C 109.15625 169.960938 108.550781 171.546875 108.378906 173.335938 C 108.316406 173.933594 108.292969 174.675781 109.308594 174.34375 Z M 109.308594 174.34375 "
          fill-opacity="1" fill-rule="nonzero"/>
    <path fill="#000000"
          d="M 173.207031 160.378906 C 171.980469 160.601562 172.199219 162.160156 172.117188 162.613281 C 171.925781 164.65625 172.324219 165.964844 173.730469 166.84375 C 174.421875 167.273438 175.351562 166.957031 175.695312 166.460938 C 176.578125 165.195312 176.363281 163.796875 175.589844 162.542969 C 175.027344 161.628906 174.375 160.164062 173.207031 160.378906 Z M 173.207031 160.378906 "
          fill-opacity="1" fill-rule="nonzero"/>
    <path fill="#000000"
          d="M 158.730469 142.75 C 159.28125 143.1875 159.78125 143.585938 160.695312 143.238281 C 161.671875 142.867188 161.816406 142.277344 161.753906 141.601562 C 161.734375 139.460938 160.226562 138.226562 158.515625 137.136719 C 158.035156 136.832031 157.335938 136.691406 157.234375 137.503906 C 157 139.402344 156.910156 141.292969 158.730469 142.75 Z M 158.730469 142.75 "
          fill-opacity="1" fill-rule="nonzero"/>
    <path fill="#000000"
          d="M 114.402344 160.910156 C 114.347656 161.621094 114.375 162.355469 115.53125 161.976562 C 117.4375 161.363281 119.082031 160.414062 119.691406 158.59375 C 119.914062 157.933594 120.175781 157.167969 119.28125 156.648438 C 118.382812 156.125 117.527344 156.355469 116.757812 156.835938 C 115.171875 157.832031 114.542969 159.269531 114.402344 160.910156 Z M 114.402344 160.910156 "
          fill-opacity="1" fill-rule="nonzero"/>
    <path fill="#000000"
          d="M 161.28125 159.832031 C 162.203125 159.546875 161.796875 158.152344 162.09375 157.335938 C 161.960938 155.695312 161.492188 154.242188 159.828125 153.402344 C 159.242188 153.105469 158.378906 153.367188 158.070312 153.882812 C 157.171875 155.394531 157.628906 156.867188 158.742188 158.128906 C 159.410156 158.878906 160.070312 160.210938 161.28125 159.832031 Z M 161.28125 159.832031 "
          fill-opacity="1" fill-rule="nonzero"/>
    <path fill="#000000"
          d="M 171.859375 176.328125 C 170.757812 176.675781 170.117188 177.363281 170.671875 178.546875 C 171.566406 180.472656 173.410156 181.300781 175.628906 181.640625 C 176.160156 181.722656 176.566406 181.671875 176.671875 181.066406 C 176.953125 179.414062 173.875 176.222656 171.859375 176.328125 Z M 171.859375 176.328125 "
          fill-opacity="1" fill-rule="nonzero"/>
    <path fill="#000000"
          d="M 169.960938 128.601562 C 170.765625 128.867188 171.359375 128.816406 171.976562 128.285156 C 173.167969 127.253906 173.75 126.039062 173.644531 124.691406 C 173.644531 122.445312 173.25 121.921875 172.160156 122.578125 C 170.328125 123.683594 168.9375 125.089844 169.089844 127.226562 C 169.128906 127.808594 169.132812 128.335938 169.960938 128.601562 Z M 169.960938 128.601562 "
          fill-opacity="1" fill-rule="nonzero"/>
    <path fill="#000000"
          d="M 178.824219 160.839844 C 179.550781 161.316406 180.113281 160.867188 180.597656 160.582031 C 182.597656 159.414062 182.972656 157.59375 183 155.675781 C 183.011719 155.035156 182.65625 154.796875 181.890625 154.96875 C 180.113281 155.371094 177.96875 157.644531 177.898438 159.304688 C 177.679688 160.015625 178.199219 160.425781 178.824219 160.839844 Z M 178.824219 160.839844 "
          fill-opacity="1" fill-rule="nonzero"/>
    <path fill="#000000"
          d="M 144.910156 132.351562 C 144.5625 133.046875 144.65625 133.460938 145.230469 134.058594 C 145.898438 134.753906 146.480469 134.527344 147.1875 134.308594 C 149.359375 133.625 150.292969 132.050781 151 130.316406 C 151.332031 129.496094 150.808594 129.289062 149.664062 129.382812 C 147.808594 129.726562 145.890625 130.398438 144.910156 132.351562 Z M 144.910156 132.351562 "
          fill-opacity="1" fill-rule="nonzero"/>
    <path fill="#000000"
          d="M 112.300781 175.132812 C 111.644531 174.671875 111.0625 175 110.5 175.300781 C 108.648438 176.292969 107.910156 177.828125 107.722656 179.625 C 107.789062 180.144531 107.425781 180.863281 108.585938 180.792969 C 110.355469 180.691406 112.976562 178.347656 113.226562 176.734375 C 113.355469 175.9375 112.886719 175.539062 112.300781 175.132812 Z M 112.300781 175.132812 "
          fill-opacity="1" fill-rule="nonzero"/>
    <path fill="#000000"
          d="M 171.546875 140.230469 C 171.363281 140.980469 171.433594 141.542969 172.328125 142.058594 C 173.371094 142.664062 173.730469 141.941406 174.4375 141.664062 C 174.511719 141.636719 174.574219 141.59375 174.628906 141.539062 C 175.074219 141.265625 176.148438 140.710938 176.265625 141.644531 C 176.011719 141.910156 175.5625 142.109375 175.414062 142.40625 C 175.027344 143.1875 174.8125 143.800781 175.550781 144.5625 C 176.304688 145.332031 177.039062 145.011719 177.773438 144.753906 C 179.492188 144.144531 180.65625 142.988281 181.09375 141.464844 C 181.460938 140.171875 181.984375 139.738281 183.609375 139.945312 C 184.886719 140.101562 186.984375 140.3125 187.285156 139.015625 C 187.546875 137.902344 185.59375 137.308594 184.414062 136.691406 C 184.144531 136.550781 183.792969 136.488281 183.46875 136.453125 C 182.253906 136.316406 180.941406 136.035156 180.074219 137.089844 C 179.140625 138.226562 180.453125 138.855469 181.472656 140.027344 C 179.761719 139.589844 178.671875 140.5 177.4375 140.769531 C 177.4375 140.769531 176.585938 140.226562 176.375 139.101562 C 176.621094 138.046875 176.914062 136.996094 176.601562 135.902344 C 174.261719 136.765625 172.136719 137.816406 171.546875 140.230469 Z M 171.546875 140.230469 "
          fill-opacity="1" fill-rule="nonzero"/>
    <path fill="#000000"
          d="M 176.601562 135.902344 C 176.613281 135.898438 176.625 135.894531 176.640625 135.890625 C 176.65625 135.8125 176.679688 135.742188 176.699219 135.667969 C 176.660156 135.714844 176.621094 135.769531 176.589844 135.847656 C 176.589844 135.863281 176.59375 135.882812 176.601562 135.902344 Z M 176.601562 135.902344 "
          fill-opacity="1" fill-rule="nonzero"/>
    <path fill="#000000"
          d="M 109.472656 146.007812 C 110.136719 146.335938 110.585938 146.390625 111.183594 145.875 C 111.644531 145.484375 112.222656 145.316406 112.042969 144.550781 C 111.878906 143.832031 111.203125 143.167969 111.625 142.367188 C 110.175781 142.207031 109.566406 140.871094 108.226562 140.519531 C 107.4375 140.308594 106.816406 140.011719 106.632812 141.058594 C 106.335938 142.722656 107.75 145.160156 109.472656 146.007812 Z M 109.472656 146.007812 "
          fill-opacity="1" fill-rule="nonzero"/>
    <path fill="#000000"
          d="M 121.886719 162.921875 C 123.863281 162.136719 125.285156 160.667969 125.46875 158.578125 C 125.535156 157.832031 125.183594 157.378906 124.480469 157 C 123.667969 156.570312 123.097656 156.851562 122.496094 157.3125 C 121.085938 158.394531 120.664062 159.816406 120.59375 161.503906 C 121.078125 161.894531 120.070312 163.640625 121.886719 162.921875 Z M 121.886719 162.921875 "
          fill-opacity="1" fill-rule="nonzero"/>
    <path fill="#000000"
          d="M 108.148438 154.019531 C 110.292969 153.625 112.253906 153.109375 113.335938 151.324219 C 113.6875 150.75 114.015625 150.21875 113.429688 149.550781 C 112.820312 148.863281 112.105469 148.75 111.257812 149.007812 C 109.007812 149.695312 107.941406 151.273438 107.304688 153.125 C 107.089844 153.75 107.492188 154.066406 108.148438 154.019531 Z M 108.148438 154.019531 "
          fill-opacity="1" fill-rule="nonzero"/>
    <path fill="#000000"
          d="M 112.503906 143.578125 C 113.457031 144.441406 114.308594 146.035156 116.003906 144.992188 C 117.726562 143.933594 116.574219 142.601562 115.769531 141.441406 C 115.6875 141.324219 115.550781 141.230469 115.433594 141.128906 C 114.445312 140.257812 113.15625 139.09375 111.957031 139.472656 C 110.625 139.898438 111.910156 141.375 111.707031 142.375 L 111.648438 142.316406 C 111.640625 142.335938 111.636719 142.351562 111.628906 142.367188 C 111.648438 142.371094 111.667969 142.375 111.6875 142.375 C 111.945312 142.785156 112.144531 143.25 112.503906 143.578125 Z M 112.503906 143.578125 "
          fill-opacity="1" fill-rule="nonzero"/>
    <path fill="#000000"
          d="M 122.082031 153.535156 C 122.894531 152.789062 122.542969 152.277344 122.167969 151.632812 C 121.210938 150 119.480469 149.382812 117.773438 149.003906 C 116.109375 148.839844 115.921875 149.015625 116.351562 150.210938 C 116.945312 151.863281 117.984375 153.171875 119.941406 153.839844 C 120.78125 154.121094 121.316406 154.238281 122.082031 153.535156 Z M 122.082031 153.535156 "
          fill-opacity="1" fill-rule="nonzero"/>
    <path fill="#000000"
          d="M 128.695312 146.292969 C 128.675781 146.285156 128.65625 146.28125 128.636719 146.273438 C 128.640625 146.28125 128.648438 146.292969 128.652344 146.300781 C 128.671875 146.308594 128.679688 146.320312 128.699219 146.328125 C 128.695312 146.316406 128.699219 146.308594 128.695312 146.292969 Z M 128.695312 146.292969 "
          fill-opacity="1" fill-rule="nonzero"/>
    <path fill="#000000"
          d="M 133.15625 144.457031 C 133.398438 143.421875 133.300781 142.316406 133.25 141.25 C 133.1875 140.097656 132.519531 140.167969 131.644531 140.738281 C 129.511719 142.136719 128.515625 143.976562 128.703125 146.292969 C 131.046875 147.121094 132.671875 146.515625 133.15625 144.457031 Z M 133.15625 144.457031 "
          fill-opacity="1" fill-rule="nonzero"/>
    <path fill="#000000"
          d="M 130.625 156.960938 C 128.859375 157.546875 127.085938 160.242188 127.222656 161.902344 C 127.289062 162.726562 127.863281 162.953125 128.535156 163.261719 C 129.289062 163.609375 129.753906 163.265625 130.277344 162.882812 C 131.582031 161.917969 132.058594 160.675781 131.992188 159.523438 C 132 157.113281 131.691406 156.605469 130.625 156.960938 Z M 130.625 156.960938 "
          fill-opacity="1" fill-rule="nonzero"/>
    <path fill="#000000"
          d="M 113.558594 208.898438 C 113.609375 208.339844 113.765625 207.835938 113.992188 207.371094 C 113.585938 207.667969 113.175781 207.964844 112.765625 208.261719 C 113.027344 208.472656 113.292969 208.683594 113.558594 208.898438 Z M 113.558594 208.898438 "
          fill-opacity="1" fill-rule="nonzero"/>
    <g clip-path="url(#dba0d837e8)">
        <path fill="#000000"
              d="M 171.519531 204.183594 C 171.769531 203.164062 173.164062 203.789062 173.707031 203 C 172.125 202.164062 170.492188 203.492188 168.859375 202.757812 C 166.175781 201.550781 163.191406 201.214844 160.171875 201.066406 C 156.402344 200.875 152.796875 200.0625 149.445312 198.507812 C 148.386719 198.019531 147.515625 197.46875 147.476562 196.242188 C 147.164062 186.746094 145.316406 189.03125 153.652344 182.796875 C 155.40625 181.484375 157.347656 180.332031 159.3125 179.265625 C 160.539062 178.601562 161.605469 177.570312 163.226562 177.578125 L 163.222656 177.582031 C 163.226562 177.578125 163.191406 177.617188 163.191406 177.617188 C 163.199219 177.617188 163.207031 177.617188 163.21875 177.621094 C 163.21875 177.613281 163.222656 177.609375 163.222656 177.597656 C 166.167969 175.980469 168.75 173.789062 172.832031 174.441406 C 175.386719 174.847656 178.144531 174.75 180.203125 172.847656 L 180.199219 172.847656 C 180.195312 172.84375 180.199219 172.785156 180.199219 172.785156 L 180.160156 172.84375 C 177.664062 173.183594 175.164062 173.636719 172.378906 172.929688 C 174.632812 171.160156 177.226562 170.015625 178.570312 167.757812 C 174.269531 169.824219 169.9375 171.6875 165.441406 173.265625 C 164.960938 173.433594 164.4375 174.066406 163.945312 173.46875 C 163.738281 173.21875 163.972656 172.660156 164.082031 172.257812 C 164.5625 170.488281 166.035156 169.113281 167.148438 166.917969 C 164.195312 169.085938 162.238281 171.082031 161.546875 173.8125 C 161.316406 174.703125 160.660156 175.15625 159.824219 175.523438 C 155.804688 177.289062 152.0625 179.414062 148.605469 181.929688 C 148.253906 182.1875 147.972656 182.6875 147.382812 182.460938 C 146.792969 182.238281 146.992188 181.703125 146.984375 181.3125 C 146.878906 176.472656 146.355469 171.632812 146.769531 166.792969 C 147.445312 158.890625 153.90625 152.832031 162.863281 151.515625 C 163.761719 151.382812 164.667969 151.199219 165.539062 150.945312 C 165.539062 150.945312 171.152344 149.667969 173.625 146.503906 C 176.101562 143.339844 174.367188 144.332031 174.367188 144.332031 C 174.367188 144.332031 170.71875 147.621094 168.175781 149.011719 C 168.40625 148.140625 169.144531 145.5625 169.144531 145.5625 C 169.414062 145.128906 169.699219 144.664062 170.011719 144.160156 C 168.125 145.394531 167.125 146.582031 166.523438 148.03125 C 165.683594 150.742188 163.191406 150.277344 160.410156 150.410156 C 162.996094 147.476562 165.566406 144.796875 167.609375 141.882812 C 167.609375 141.882812 167.609375 141.882812 167.613281 141.882812 C 168.773438 140.757812 169.507812 139.390625 169.871094 138.59375 C 170.285156 138.144531 170.523438 137.570312 170.433594 136.648438 C 169.683594 137.585938 169.140625 138.261719 168.605469 138.933594 C 162.5625 145.875 154.984375 151.214844 145.886719 155.183594 C 144.667969 152.410156 145.15625 149.40625 145.496094 146.414062 C 145.972656 142.253906 145.515625 138.191406 143.746094 134.269531 C 143.484375 133.683594 143.277344 133.082031 142.253906 132.875 C 142.8125 134.863281 143.097656 136.789062 143.148438 138.742188 C 143.199219 140.773438 143.160156 142.78125 142.75 144.792969 C 142.425781 146.402344 141.964844 146.769531 140.3125 145.585938 C 137.449219 143.535156 135.761719 140.878906 134.355469 137.53125 C 134.332031 141.195312 135.425781 144.117188 138.160156 146.253906 C 140.214844 147.855469 142.207031 149.195312 140.84375 151.921875 C 140.648438 152.320312 141.011719 152.699219 141.234375 153.101562 C 141.96875 154.402344 141.777344 155.863281 141.230469 157.101562 C 141.035156 157.546875 140.613281 157.679688 140.113281 157.730469 C 139.511719 157.292969 139.027344 156.394531 138.789062 155.914062 C 138.785156 155.613281 138.339844 155.265625 137.910156 154.917969 C 137.066406 154.238281 136.253906 153.394531 135.234375 153.050781 C 131.582031 151.816406 130.144531 149.058594 128.648438 146.296875 C 126.597656 145.117188 126.71875 142.847656 125.347656 141.316406 C 124.777344 141.753906 125.605469 142.636719 124.554688 143.03125 C 123.296875 141.027344 121.453125 139.730469 118.671875 139.785156 C 118.140625 139.796875 117.207031 139.59375 117.34375 140.304688 C 117.628906 141.78125 118.679688 142.972656 120.15625 143.71875 C 121.246094 144.273438 122.496094 145.015625 123.757812 143.902344 C 124.289062 143.429688 125.183594 142.753906 125.433594 143.667969 C 125.953125 145.566406 127.558594 147.089844 127.96875 149.226562 C 124.269531 148.675781 121.042969 146.976562 117.308594 147.886719 C 121.871094 149.210938 126.4375 150.515625 130.125 153.636719 C 126.488281 154.804688 122.835938 154.652344 119.242188 154.925781 C 122.8125 155.996094 126.40625 156.078125 129.921875 155.167969 C 131.53125 154.753906 132.484375 155.046875 133.625 156.007812 C 134.300781 156.578125 134.789062 157.285156 135.34375 157.945312 C 135.511719 158.144531 135.683594 158.34375 135.871094 158.53125 L 138.28125 161.195312 C 139.015625 162.222656 139.734375 163.261719 139.839844 164.519531 C 140.113281 167.832031 140.292969 171.152344 140.484375 174.46875 C 140.507812 174.855469 140.707031 175.382812 140.058594 175.566406 C 139.457031 175.742188 139.1875 175.246094 138.839844 174.984375 C 136.941406 173.566406 134.910156 172.300781 132.710938 171.296875 C 131.179688 170.597656 129.96875 169.886719 129.488281 168.300781 C 129.195312 167.34375 128.566406 166.335938 127.277344 165.898438 C 127.003906 166.558594 127.519531 166.9375 127.671875 167.40625 C 127.839844 167.910156 128.535156 168.472656 127.855469 168.949219 C 127.328125 169.324219 126.773438 168.800781 126.28125 168.601562 C 124.472656 167.878906 122.683594 167.128906 120.90625 166.347656 C 120.214844 166.042969 119.597656 165.570312 118.53125 166.234375 C 119.722656 166.90625 120.738281 167.484375 121.757812 168.0625 C 121.878906 168.40625 122.226562 168.746094 121.777344 169.101562 C 121.261719 169.109375 120.742188 169.121094 120.226562 169.132812 C 120.226562 169.15625 120.226562 169.175781 120.226562 169.199219 C 120.226562 169.175781 120.226562 169.15625 120.226562 169.132812 C 119.941406 169.089844 119.65625 169.042969 119.367188 168.996094 C 116.515625 168.207031 116.898438 168.167969 115.523438 166.730469 C 114.144531 165.292969 114.53125 164.621094 114.4375 166.105469 C 114.34375 167.589844 113.925781 168.308594 115.578125 169.460938 C 116.246094 169.929688 117.136719 170.066406 117.960938 170.066406 C 117.816406 170.199219 117.585938 170.320312 117.222656 170.433594 C 116.277344 170.730469 115.648438 171.464844 115.214844 172.261719 C 114.476562 173.617188 114.054688 175.195312 114.925781 176.40625 C 115.722656 177.515625 116.519531 175.378906 117.648438 175.847656 C 117.285156 175.507812 117.722656 175.300781 117.929688 175.082031 C 119.410156 173.492188 120.195312 171.882812 118.039062 170.066406 C 119.210938 170.054688 120.226562 169.765625 120.226562 169.765625 C 120.890625 169.773438 121.558594 169.777344 122.21875 169.785156 C 122.417969 169.757812 122.617188 169.738281 122.8125 169.710938 C 124.496094 169.835938 125.574219 170.25 125.914062 170.398438 C 130.273438 172.40625 134.496094 174.59375 138.089844 177.617188 C 139.703125 178.972656 140.53125 180.5 140.402344 182.433594 C 140.175781 185.902344 139.777344 189.371094 139.808594 192.835938 C 139.839844 196.480469 137.476562 198.363281 134.035156 199.589844 C 131.730469 200.414062 129.320312 201.015625 126.796875 201.085938 C 124.351562 201.15625 122.007812 201.644531 119.816406 202.546875 C 118.949219 202.902344 118.101562 203.027344 117.191406 203.0625 C 116.367188 202.402344 115.617188 202.617188 114.789062 203.164062 C 115.449219 203.609375 116.371094 203.253906 116.867188 204.054688 C 115.820312 205.078125 114.625 206.070312 113.988281 207.367188 C 115.261719 206.449219 116.535156 205.53125 117.804688 204.613281 C 119.0625 204.128906 120.308594 203.609375 121.582031 203.160156 C 122.710938 202.761719 123.640625 202.6875 123.140625 204.199219 C 123.011719 204.585938 122.730469 205.136719 123.496094 205.195312 C 124.039062 205.234375 124.273438 204.835938 124.269531 204.300781 C 124.261719 203.550781 124.011719 202.507812 125.351562 202.464844 C 128.703125 202.363281 132.042969 202.210938 135.207031 201.636719 C 135.550781 202.332031 135.289062 202.546875 135.023438 202.691406 C 132.117188 204.300781 130.210938 206.609375 128.773438 209.285156 C 128.285156 210.191406 127.617188 211.042969 126.230469 211.03125 C 124.226562 209.453125 122.34375 210.273438 120.457031 211.257812 C 122.429688 210.566406 124.324219 211.023438 126.214844 211.515625 C 126.535156 212.390625 125.371094 212.542969 125.160156 213.160156 C 123.792969 214 122.429688 214.839844 120.898438 215.785156 C 122.792969 215.769531 124.039062 215.007812 125.191406 214.0625 C 125.542969 213.917969 125.894531 213.765625 126.246094 213.621094 C 126.738281 214.683594 126.746094 215.761719 126.375 216.847656 C 126.371094 216.867188 126.367188 216.886719 126.359375 216.90625 C 127.964844 215.722656 126.0625 214.074219 127.078125 212.8125 C 128.335938 212.472656 128.921875 210.058594 130.800781 212.015625 C 131.464844 211.011719 130.007812 210.625 130.234375 209.773438 C 130.882812 207.351562 135.773438 204.546875 138.65625 205.015625 C 139.832031 205.207031 140.53125 205.832031 140.882812 206.816406 C 141.300781 207.984375 140.183594 208.058594 139.4375 208.4375 C 138.046875 209.140625 136.933594 210.078125 136.347656 211.425781 C 135.167969 213.464844 134.527344 215.726562 132.917969 217.59375 C 135.785156 216.324219 136.117188 213.703125 137.328125 211.554688 C 137.710938 211.1875 138.070312 210.796875 138.484375 210.453125 C 140.433594 208.84375 140.957031 208.96875 141.796875 211.132812 C 142.164062 212.082031 142.574219 213.027344 143.113281 213.90625 C 143.714844 214.882812 143.789062 215.324219 142.246094 215.582031 C 140.085938 215.941406 138.253906 216.894531 137.59375 218.949219 C 137.59375 218.949219 137.597656 218.945312 137.597656 218.945312 C 137.605469 218.941406 137.667969 218.980469 137.667969 218.980469 L 137.644531 218.902344 C 137.644531 218.902344 137.640625 218.90625 137.640625 218.90625 C 137.640625 218.90625 137.644531 218.902344 137.644531 218.902344 C 138.339844 218.410156 139.015625 217.886719 139.742188 217.429688 C 140.824219 216.75 142.207031 215.949219 143.328125 216.4375 C 144.445312 216.925781 143.472656 218.257812 143.515625 219.214844 C 143.527344 219.402344 143.59375 219.59375 143.6875 220.027344 C 145.375 218.316406 145.726562 216.453125 145.601562 214.53125 C 145.523438 213.359375 145.984375 213.382812 147.019531 213.65625 C 149.5625 214.324219 147.296875 215.734375 147.617188 216.824219 C 148.429688 216.390625 148.40625 215.191406 149.648438 215.453125 C 150.226562 216.339844 150.332031 217.464844 151.28125 218.179688 C 151.382812 216.898438 151.382812 215.695312 150.304688 214.769531 C 149.550781 213.355469 148.113281 212.644531 146.566406 212.078125 C 145.769531 211.785156 145.167969 211.542969 145.074219 210.605469 C 144.617188 205.972656 147.140625 204.34375 152 206.214844 C 152.679688 206.476562 153.320312 206.808594 153.960938 207.144531 C 155.546875 207.980469 156.171875 208.921875 155.402344 210.695312 C 154.375 213.070312 154.320312 215.589844 156.105469 218.207031 C 156.105469 216.964844 155.753906 215.890625 156.191406 215.183594 C 156.777344 214.21875 158 215.242188 159.082031 215.21875 C 156.097656 212.789062 156.097656 212.789062 157.5625 210.664062 C 160.1875 213.375 163.242188 215.171875 167.488281 214.171875 C 165.835938 213.550781 164.054688 213.277344 162.625 212.160156 C 161.554688 211.324219 161.910156 210.820312 162.90625 210.433594 C 164.09375 209.972656 165.351562 209.652344 166.816406 209.199219 C 165.023438 208.738281 163.601562 209.066406 162.4375 209.738281 C 160.988281 210.574219 160.460938 210.078125 159.84375 208.972656 C 158.367188 206.316406 156.042969 204.476562 152.773438 203.527344 C 151.699219 203.214844 150.503906 202.851562 149.949219 201.550781 C 151.890625 201.792969 153.601562 202.066406 155.324219 202.203125 C 157.0625 202.339844 158.820312 202.453125 160.550781 202.351562 C 162.566406 202.234375 163.5 202.886719 163.402344 204.640625 C 162.4375 205.230469 161.613281 205.882812 162.035156 207.707031 C 162.9375 204.132812 164.542969 205.59375 166.125 206.746094 C 165.558594 206.128906 165.59375 205.261719 164.691406 205.007812 C 164.464844 202.679688 164.65625 202.582031 167.257812 203.367188 C 168.410156 203.714844 169.273438 204.640625 170.605469 204.601562 C 172.375 205.730469 174.023438 206.980469 175.503906 208.402344 C 174.710938 206.589844 173.507812 205.09375 171.519531 204.183594 Z M 171.519531 204.183594 "
              fill-opacity="1" fill-rule="nonzero"/>
    </g>
    <g clip-path="url(#4661e53343)">
        <path fill="#000000"
              d="M 144.234375 121.742188 C 146.566406 120.433594 147.4375 118.371094 146.742188 116.125 C 146.46875 115.238281 145.96875 115.28125 145.371094 115.714844 C 143.574219 117.015625 141.914062 118.410156 142.46875 120.753906 C 142.613281 121.683594 143.367188 121.785156 144.234375 121.742188 Z M 144.234375 121.742188 "
              fill-opacity="1" fill-rule="nonzero"/>
    </g>
    <path fill="#000000"
          d="M 165.535156 165.25 C 165.847656 165.539062 166.246094 165.714844 166.890625 165.550781 C 168.035156 165.253906 168.3125 164.488281 168.371094 163.546875 C 168.480469 161.738281 167.402344 160.402344 166.101562 159.171875 C 165.5 158.605469 165.003906 158.695312 164.675781 159.484375 C 164.675781 159.484375 162.769531 162.101562 163.660156 163.890625 C 163.570312 163.855469 163.480469 163.792969 163.394531 163.703125 C 162.515625 162.800781 161.417969 161.199219 160.328125 161.726562 C 158.96875 162.386719 159.554688 164.152344 159.921875 165.480469 C 159.941406 165.550781 159.921875 165.621094 159.921875 165.695312 C 160.132812 165.914062 160.308594 166.167969 160.066406 166.410156 C 159.984375 166.492188 159.671875 166.390625 159.460938 166.371094 C 158.402344 166.109375 157.738281 164.472656 156.664062 165.152344 C 155.730469 165.738281 156.136719 167.164062 156.304688 168.222656 C 156.605469 170.148438 158.308594 171.726562 159.597656 171.257812 C 161.921875 170.410156 160.644531 168.9375 160.304688 167.636719 C 160.289062 167.570312 160.289062 167.496094 160.28125 167.421875 C 160.132812 167.207031 159.808594 166.96875 160.179688 166.746094 C 160.574219 166.503906 160.667969 166.875 160.820312 167.078125 C 161.671875 167.46875 162.316406 168.472656 163.550781 167.628906 C 164.601562 166.910156 164.320312 166.050781 164.152344 165.140625 C 164.089844 164.78125 163.679688 164.425781 163.753906 164.050781 C 164.058594 164.5625 164.613281 164.984375 165.535156 165.25 Z M 165.535156 165.25 "
          fill-opacity="1" fill-rule="nonzero"/>
</svg>