<svg xmlns="http://www.w3.org/2000/svg" xmlns:xlink="http://www.w3.org/1999/xlink" width="1366" zoomAndPan="magnify" viewBox="0 0 1024.5 576" height="768" preserveAspectRatio="xMidYMid meet" version="1.0"><defs><clipPath id="db96f00fd9"><path d="M 0 0.140625 L 1024 0.140625 L 1024 575.859375 L 0 575.859375 Z M 0 0.140625 " clip-rule="nonzero"/></clipPath><clipPath id="d5ab5b45b4"><path d="M 103.503906 103.476562 L 201.0625 103.476562 L 201.0625 167.496094 L 103.503906 167.496094 Z M 103.503906 103.476562 " clip-rule="nonzero"/></clipPath><clipPath id="3260774df0"><path d="M 84.867188 104 L 178.859375 104 L 178.859375 167.496094 L 84.867188 167.496094 Z M 84.867188 104 " clip-rule="nonzero"/></clipPath></defs><g clip-path="url(#db96f00fd9)"><path fill="#ffffff" d="M 0 0.140625 L 1024 0.140625 L 1024 575.859375 L 0 575.859375 Z M 0 0.140625 " fill-opacity="1" fill-rule="nonzero"/></g><g clip-path="url(#d5ab5b45b4)"><path fill="#100f0d" d="M 201.058594 125.132812 L 187.964844 103.476562 L 177.984375 109.589844 L 191.082031 131.246094 Z M 176.339844 110.570312 C 174.226562 111.742188 170.425781 112.878906 170.378906 112.886719 C 166.984375 113.574219 163.761719 112.832031 160.640625 112.117188 C 159.183594 111.78125 157.675781 111.433594 156.207031 111.257812 C 152.238281 110.773438 148.179688 111.375 145.003906 112.890625 C 144.96875 112.90625 144.933594 112.917969 144.902344 112.933594 L 144.875 112.902344 C 144.847656 112.921875 144.824219 112.949219 144.792969 112.96875 L 128.261719 124.257812 C 127.328125 124.855469 126.695312 125.75 126.460938 126.800781 C 126.226562 127.851562 126.410156 128.933594 126.980469 129.84375 C 127.550781 130.757812 128.441406 131.390625 129.484375 131.625 C 130.53125 131.863281 131.605469 131.679688 132.511719 131.105469 L 151.378906 120.816406 L 151.570312 120.710938 C 151.59375 120.699219 151.617188 120.691406 151.640625 120.679688 C 151.65625 120.671875 151.675781 120.667969 151.691406 120.65625 C 151.8125 120.609375 151.933594 120.585938 152.058594 120.582031 C 152.074219 120.578125 152.089844 120.578125 152.105469 120.582031 C 152.183594 120.582031 152.265625 120.585938 152.34375 120.605469 C 152.390625 120.617188 152.433594 120.628906 152.480469 120.644531 C 152.492188 120.652344 152.507812 120.65625 152.523438 120.664062 C 152.644531 120.714844 152.753906 120.785156 152.855469 120.878906 C 152.859375 120.878906 152.867188 120.882812 152.875 120.886719 L 177.609375 144.863281 L 189.4375 132.429688 C 187.386719 129.007812 178.765625 114.621094 176.339844 110.570312 Z M 117.457031 155.535156 L 123.335938 150.730469 C 124.84375 149.496094 125.074219 147.253906 123.847656 145.730469 C 123.152344 144.871094 122.132812 144.421875 121.105469 144.421875 C 120.320312 144.421875 119.535156 144.679688 118.882812 145.214844 L 113.007812 150.019531 C 112.273438 150.621094 111.816406 151.46875 111.722656 152.414062 C 111.625 153.355469 111.894531 154.28125 112.496094 155.019531 C 113.085938 155.753906 113.929688 156.214844 114.867188 156.3125 C 115.804688 156.40625 116.726562 156.132812 117.457031 155.535156 Z M 121.226562 163.171875 C 122.160156 163.265625 123.082031 162.992188 123.816406 162.394531 L 132.703125 155.125 C 134.214844 153.886719 134.445312 151.644531 133.214844 150.125 C 132.621094 149.390625 131.78125 148.929688 130.839844 148.832031 C 130.714844 148.820312 130.59375 148.8125 130.472656 148.8125 C 129.660156 148.8125 128.886719 149.085938 128.25 149.609375 L 119.363281 156.878906 C 118.628906 157.476562 118.171875 158.328125 118.078125 159.273438 C 117.980469 160.214844 118.253906 161.140625 118.851562 161.878906 C 119.445312 162.613281 120.285156 163.074219 121.226562 163.171875 Z M 109.316406 142.011719 C 108.53125 142.011719 107.746094 142.269531 107.089844 142.804688 L 104.917969 144.582031 C 103.40625 145.820312 103.175781 148.0625 104.402344 149.585938 C 105 150.320312 105.84375 150.777344 106.78125 150.878906 C 107.722656 150.972656 108.640625 150.699219 109.371094 150.101562 L 111.542969 148.320312 C 113.054688 147.085938 113.285156 144.84375 112.058594 143.320312 C 111.359375 142.457031 110.34375 142.011719 109.316406 142.011719 Z M 128.820312 161.191406 L 130.996094 159.410156 C 131.652344 158.875 132.4375 158.617188 133.21875 158.617188 C 134.25 158.617188 135.265625 159.066406 135.964844 159.925781 C 137.191406 161.449219 136.960938 163.691406 135.449219 164.921875 L 133.277344 166.703125 C 131.765625 167.941406 129.539062 167.707031 128.308594 166.1875 C 127.082031 164.664062 127.3125 162.425781 128.820312 161.191406 " fill-opacity="1" fill-rule="nonzero"/></g><g clip-path="url(#3260774df0)"><path fill="#100f0d" d="M 94.84375 131.828125 L 107.941406 110.171875 L 97.964844 104.058594 L 84.867188 125.714844 Z M 177.773438 152.992188 C 176.445312 154.421875 174.203125 154.5 172.785156 153.160156 L 170.230469 150.757812 C 170.226562 150.757812 170.222656 150.75 170.21875 150.746094 L 162.34375 143.339844 L 161.847656 142.875 C 161.398438 142.453125 160.691406 142.476562 160.273438 142.929688 C 159.855469 143.382812 159.875 144.09375 160.324219 144.511719 L 168.695312 152.382812 C 169.382812 153.035156 169.785156 153.914062 169.816406 154.859375 C 169.84375 155.808594 169.507812 156.714844 168.867188 157.410156 C 168.21875 158.097656 167.347656 158.5 166.40625 158.53125 C 165.453125 158.570312 164.5625 158.226562 163.875 157.578125 L 161.53125 155.371094 C 161.484375 155.324219 161.441406 155.273438 161.390625 155.226562 L 155.511719 149.699219 L 153.019531 147.355469 C 152.570312 146.929688 151.867188 146.953125 151.445312 147.40625 C 151.023438 147.859375 151.050781 148.566406 151.5 148.992188 L 159.867188 156.863281 C 160.558594 157.511719 160.953125 158.390625 160.984375 159.339844 C 161.015625 160.289062 160.679688 161.191406 160.035156 161.886719 C 159.390625 162.578125 158.519531 162.980469 157.574219 163.011719 C 156.621094 163.050781 155.734375 162.703125 155.046875 162.054688 L 146.679688 154.183594 C 146.675781 154.179688 146.671875 154.179688 146.667969 154.179688 L 144.164062 151.824219 C 143.714844 151.402344 143.011719 151.425781 142.589844 151.878906 C 142.171875 152.332031 142.191406 153.039062 142.640625 153.464844 L 151.011719 161.335938 C 152.433594 162.675781 152.511719 164.925781 151.183594 166.355469 C 150.539062 167.050781 149.664062 167.449219 148.722656 167.480469 C 147.785156 167.519531 146.878906 167.175781 146.195312 166.527344 L 137.820312 158.65625 C 137.820312 158.65625 137.820312 158.65625 137.820312 158.652344 C 137.808594 158.640625 137.789062 158.636719 137.773438 158.625 C 137.746094 158.589844 137.722656 158.546875 137.691406 158.511719 C 136.847656 157.460938 135.707031 156.792969 134.488281 156.519531 C 136.601562 154.453125 136.839844 151.054688 134.949219 148.710938 C 133.976562 147.511719 132.597656 146.757812 131.070312 146.597656 C 129.546875 146.445312 128.050781 146.890625 126.859375 147.859375 C 126.835938 146.609375 126.417969 145.359375 125.574219 144.316406 C 123.574219 141.835938 119.9375 141.457031 117.476562 143.472656 L 115.066406 145.441406 C 115.046875 144.195312 114.628906 142.949219 113.789062 141.90625 C 112.589844 140.421875 110.800781 139.695312 109.03125 139.78125 C 107.847656 139.839844 106.671875 140.257812 105.6875 141.066406 L 104.835938 141.761719 L 96.761719 133.273438 C 98.8125 129.851562 107.425781 115.472656 109.859375 111.414062 C 111.972656 112.585938 115.773438 113.71875 115.820312 113.730469 C 119.214844 114.421875 122.4375 113.679688 125.558594 112.960938 C 127.011719 112.625 128.523438 112.277344 129.992188 112.101562 C 133.597656 111.660156 137.273438 112.109375 140.300781 113.332031 L 127.042969 122.382812 C 125.632812 123.277344 124.65625 124.671875 124.289062 126.304688 C 124.203125 126.6875 124.15625 127.074219 124.140625 127.457031 C 124.089844 128.714844 124.414062 129.957031 125.097656 131.039062 C 125.984375 132.460938 127.371094 133.445312 128.996094 133.816406 C 129.460938 133.917969 129.929688 133.972656 130.394531 133.972656 C 131.546875 133.972656 132.675781 133.648438 133.632812 133.039062 L 151.917969 123.074219 L 153.464844 124.574219 L 177.605469 147.96875 C 179.027344 149.308594 179.101562 151.558594 177.773438 152.992188 " fill-opacity="1" fill-rule="nonzero"/></g></svg>